<?xml version="1.0" encoding="UTF-8"?>
<svg version="1.1" xmlns="http://www.w3.org/2000/svg" width="763" height="657">
<path d="M0 0 C2.12829435 0.00314908 4.25517806 -0.02034875 6.38330078 -0.0456543 C30.65945504 -0.15915493 52.13769693 7.88521065 69.83251953 24.62817383 C78.61336313 33.90481543 83.70895428 44.37403032 87.89501953 56.31567383 C88.22313629 57.05736313 88.55125305 57.79905243 88.88931274 58.56321716 C92.50610871 68.46180219 92.2101584 80.29758687 92.30908203 90.68676758 C92.33813126 92.61928123 92.33813126 92.61928123 92.36776733 94.59083557 C92.41830017 97.95908886 92.45833826 101.32738134 92.49591064 104.69580078 C92.53645558 108.15577235 92.5873128 111.61559231 92.63720703 115.07543945 C92.7330276 121.82207247 92.81772102 128.56880376 92.89501953 135.31567383 C93.27894867 134.92730347 93.66287781 134.53893311 94.05844116 134.13879395 C98.04288312 130.11022366 102.03425407 126.08861667 106.02978516 122.07104492 C107.52149751 120.56925344 109.01141281 119.0656748 110.49951172 117.56030273 C112.63449601 115.40115417 114.77578724 113.24844229 116.91845703 111.09692383 C117.58622162 110.41883667 118.25398621 109.74074951 118.94198608 109.04211426 C119.56247833 108.42147095 120.18297058 107.80082764 120.82226562 107.16137695 C121.36853607 106.61066528 121.91480652 106.05995361 122.47763062 105.49255371 C123.89501953 104.31567383 123.89501953 104.31567383 125.89501953 104.31567383 C126.16314453 103.72399414 126.43126953 103.13231445 126.70751953 102.52270508 C130.59086064 95.30531125 138.22133845 90.68078547 144.89501953 86.31567383 C145.66587891 85.78844727 146.43673828 85.2612207 147.23095703 84.71801758 C164.79108942 73.31268242 186.7238412 71.08623321 206.89501953 75.31567383 C221.77362822 79.30955366 235.18006043 86.26817241 246.89501953 96.31567383 C247.70455078 97.0040332 248.51408203 97.69239258 249.34814453 98.40161133 C267.73783452 114.47848754 282.40051761 135.48152136 284.89501953 160.31567383 C286.4292197 184.95515932 278.83794426 206.33734409 262.5300827 224.86653137 C259.07718095 228.62415465 255.48650969 232.24587417 251.88720703 235.86254883 C250.75085438 237.01111988 249.61463677 238.15982455 248.47854614 239.30865479 C246.11901313 241.69044033 243.75331086 244.0658982 241.38378906 246.43774414 C238.35282999 249.47403579 235.3457255 252.53287213 232.34350395 255.59754562 C230.01501963 257.96686539 227.67092341 260.3202516 225.32217789 262.66947174 C224.20571053 263.79131031 223.09495951 264.9188692 221.99023056 266.05226898 C220.44969478 267.62949456 218.88851626 269.18301407 217.3203125 270.73266602 C216.43922821 271.62024597 215.55814392 272.50782593 214.65036011 273.42230225 C211.13962282 275.83475546 209.07384682 275.82914845 204.89501953 275.31567383 C203.90501953 274.65567383 202.91501953 273.99567383 201.89501953 273.31567383 C201.29608381 269.3893174 200.9576031 266.84053788 203.06689453 263.40942383 C204.59784836 261.61015851 206.19498916 259.95541943 207.89501953 258.31567383 C208.76126953 257.42879883 209.62751953 256.54192383 210.52001953 255.62817383 C211.30376953 254.86504883 212.08751953 254.10192383 212.89501953 253.31567383 C213.61689453 252.55254883 214.33876953 251.78942383 215.08251953 251.00317383 C216.89501953 249.31567383 216.89501953 249.31567383 218.89501953 249.31567383 C218.89501953 248.65567383 218.89501953 247.99567383 218.89501953 247.31567383 C220.87762379 245.62835106 222.87825374 243.96201325 224.89501953 242.31567383 C225.22501953 241.65567383 225.55501953 240.99567383 225.89501953 240.31567383 C226.55501953 240.31567383 227.21501953 240.31567383 227.89501953 240.31567383 C227.89501953 239.65567383 227.89501953 238.99567383 227.89501953 238.31567383 C229.46923828 236.80004883 229.46923828 236.80004883 231.58251953 235.06567383 C235.11235292 232.07460448 237.93775778 228.87955337 240.89501953 225.31567383 C241.92405281 224.46678961 242.96703613 223.63466092 244.02001953 222.81567383 C256.15093753 212.70215139 266.54095745 196.63130829 268.58251953 180.87817383 C269.58070038 168.83761729 269.03220284 156.42876425 263.89501953 145.31567383 C263.50701172 144.4262207 263.11900391 143.53676758 262.71923828 142.62036133 C258.83670203 134.24283241 253.69881513 127.41343041 247.89501953 120.31567383 C247.33556641 119.6015332 246.77611328 118.88739258 246.19970703 118.15161133 C243.05005312 114.24466357 239.57716376 111.40927429 235.43408203 108.57739258 C234.92619141 108.16102539 234.41830078 107.7446582 233.89501953 107.31567383 C233.89501953 106.65567383 233.89501953 105.99567383 233.89501953 105.31567383 C233.19248047 105.06430664 232.48994141 104.81293945 231.76611328 104.55395508 C228.56144463 103.17180547 225.8703313 101.4242338 222.95751953 99.50317383 C207.13137686 89.47396142 190.23312983 86.55166752 172.02001953 90.44067383 C161.34453351 93.33311572 152.08838169 98.56749195 143.78564453 105.81176758 C141.89501953 107.31567383 141.89501953 107.31567383 139.89501953 107.31567383 C139.55470703 108.15098633 139.55470703 108.15098633 139.20751953 109.00317383 C137.51951917 111.9772697 135.42825436 114.03576248 132.89501953 116.31567383 C132.23501953 116.31567383 131.57501953 116.31567383 130.89501953 116.31567383 C130.62689453 116.95504883 130.35876953 117.59442383 130.08251953 118.25317383 C128.89501953 120.31567383 128.89501953 120.31567383 125.89501953 121.31567383 C124.68619857 123.31583849 124.68619857 123.31583849 123.89501953 125.31567383 C123.23501953 125.31567383 122.57501953 125.31567383 121.89501953 125.31567383 C121.62689453 125.95504883 121.35876953 126.59442383 121.08251953 127.25317383 C119.89501953 129.31567383 119.89501953 129.31567383 116.89501953 130.31567383 C116.58564453 130.95504883 116.27626953 131.59442383 115.95751953 132.25317383 C114.64447611 134.80202282 113.41127038 135.0981331 110.89501953 136.31567383 C110.56501953 137.30567383 110.23501953 138.29567383 109.89501953 139.31567383 C109.23501953 139.31567383 108.57501953 139.31567383 107.89501953 139.31567383 C107.66814453 139.87254883 107.44126953 140.42942383 107.20751953 141.00317383 C105.51951917 143.9772697 103.42825436 146.03576248 100.89501953 148.31567383 C100.23501953 148.31567383 99.57501953 148.31567383 98.89501953 148.31567383 C98.66814453 148.89317383 98.44126953 149.47067383 98.20751953 150.06567383 C96.4357141 153.10305457 94.93537476 154.50439837 91.89501953 156.31567383 C87.81306772 156.978991 84.24484506 156.85560404 80.39501953 155.31567383 C76.3473509 149.91878233 77.78119387 140.20695293 77.83251953 133.75708008 C77.83819946 132.10324562 77.83819946 132.10324562 77.84399414 130.41600037 C77.86018645 125.73578149 77.88812553 121.05565291 77.91552734 116.37548828 C78.73080266 82.72209363 78.73080266 82.72209363 69.20751953 50.94067383 C68.08072211 48.68707898 67.36798259 46.77508175 66.89501953 44.31567383 C66.23501953 44.31567383 65.57501953 44.31567383 64.89501953 44.31567383 C60.89501953 39.84508559 60.89501953 39.84508559 60.89501953 37.31567383 C60.23501953 37.31567383 59.57501953 37.31567383 58.89501953 37.31567383 C58.25564453 36.63504883 57.61626953 35.95442383 56.95751953 35.25317383 C44.10070335 21.94391837 24.73242314 17.09121312 6.89501953 16.31567383 C5.62658203 16.25379883 5.62658203 16.25379883 4.33251953 16.19067383 C-17.22825682 15.66480123 -39.92937788 20.24295323 -56.10498047 35.31567383 C-56.76498047 35.31567383 -57.42498047 35.31567383 -58.10498047 35.31567383 C-58.36666016 35.89188477 -58.62833984 36.4680957 -58.89794922 37.06176758 C-60.17996116 39.45568632 -61.66894759 41.30397186 -63.41748047 43.37817383 C-71.37981616 53.49249214 -75.03935446 65.49678702 -75.69091797 78.22973633 C-75.75353317 79.4386705 -75.75353317 79.4386705 -75.81741333 80.67202759 C-76.16681975 88.56136168 -76.14394212 96.44360968 -76.09716797 104.33911133 C-76.09335617 104.99990944 -76.08954437 105.66070755 -76.08561707 106.34152985 C-76.04869064 112.53454148 -76.00284819 118.72742652 -75.93359375 124.92016602 C-75.90321527 127.68234965 -75.88083932 130.4443786 -75.86721802 133.20669556 C-75.85412259 135.78326544 -75.82915377 138.3598099 -75.79074097 140.93612671 C-75.78728668 142.09568878 -75.7838324 143.25525085 -75.78027344 144.44995117 C-75.7705954 145.46519867 -75.76091736 146.48044617 -75.75094604 147.52645874 C-76.16610788 150.79725832 -77.17061342 152.66867041 -79.10498047 155.31567383 C-82.0629177 156.79464244 -83.80718271 156.75123202 -87.10498047 156.31567383 C-89.73143991 154.60505395 -92.03838822 152.67574663 -94.10498047 150.31567383 C-94.10498047 149.65567383 -94.10498047 148.99567383 -94.10498047 148.31567383 C-94.68763672 148.05786133 -95.27029297 147.80004883 -95.87060547 147.53442383 C-98.28527077 146.21733366 -99.92238224 144.76478999 -101.85498047 142.81567383 C-102.46857422 142.20723633 -103.08216797 141.59879883 -103.71435547 140.97192383 C-105.10498047 139.31567383 -105.10498047 139.31567383 -105.10498047 137.31567383 C-106.09498047 136.98567383 -107.08498047 136.65567383 -108.10498047 136.31567383 C-108.10498047 135.65567383 -108.10498047 134.99567383 -108.10498047 134.31567383 C-108.64106934 134.10628174 -109.1771582 133.89688965 -109.72949219 133.68115234 C-113.02702975 131.78566133 -115.47822475 129.16803498 -118.11279297 126.46801758 C-118.679487 125.89612198 -119.24618103 125.32422638 -119.83004761 124.73500061 C-121.63485319 122.91242158 -123.43281365 121.08328309 -125.22998047 119.25317383 C-127.03515362 117.42038762 -128.84176436 115.58907853 -130.65133667 113.76063538 C-131.77595583 112.62375352 -132.8978911 111.48420925 -134.01687622 110.34178162 C-136.78528235 107.46823768 -136.78528235 107.46823768 -140.10498047 105.31567383 C-140.10498047 104.65567383 -140.10498047 103.99567383 -140.10498047 103.31567383 C-140.65025391 103.0552832 -141.19552734 102.79489258 -141.75732422 102.52661133 C-144.47870408 101.12290458 -147.0532337 99.53498144 -149.66748047 97.94067383 C-162.60786196 90.40517322 -176.16916126 86.92594275 -191.10498047 89.31567383 C-191.83974609 89.42911133 -192.57451172 89.54254883 -193.33154297 89.65942383 C-208.50342122 92.52828808 -222.12999305 99.91758731 -233.14404297 110.59301758 C-235.10498047 112.31567383 -235.10498047 112.31567383 -237.10498047 112.31567383 C-237.10498047 112.97567383 -237.10498047 113.63567383 -237.10498047 114.31567383 C-238.97998047 116.44067383 -238.97998047 116.44067383 -241.10498047 118.31567383 C-241.76498047 118.31567383 -242.42498047 118.31567383 -243.10498047 118.31567383 C-243.59998047 119.80067383 -243.59998047 119.80067383 -244.10498047 121.31567383 C-244.76498047 121.31567383 -245.42498047 121.31567383 -246.10498047 121.31567383 C-246.37826172 121.89317383 -246.65154297 122.47067383 -246.93310547 123.06567383 C-248.09546825 125.29741038 -249.4067366 127.26010188 -250.85498047 129.31567383 C-261.82729542 145.77414625 -266.84323577 163.89607792 -263.44482422 183.52270508 C-261.07650784 195.08991718 -255.80358697 204.45061179 -248.10498047 213.31567383 C-248.10498047 213.97567383 -248.10498047 214.63567383 -248.10498047 215.31567383 C-247.44498047 215.31567383 -246.78498047 215.31567383 -246.10498047 215.31567383 C-244.72421265 216.72262573 -244.72421265 216.72262573 -243.09472656 218.70581055 C-238.76641199 223.79232316 -234.04507127 228.41067164 -229.26904297 233.07348633 C-227.86353906 234.45871138 -226.45804977 235.84395165 -225.053442 237.23008537 C-221.62375005 240.61437493 -218.1899918 243.99430983 -214.74023438 247.3581543 C-212.79135092 249.25911105 -210.84928032 251.16655036 -208.91439819 253.08175659 C-207.10029922 254.87711087 -205.2765699 256.66279844 -203.44229126 258.43753052 C-202.62408905 259.25212738 -201.80588684 260.06672424 -200.96289062 260.90600586 C-199.87870346 261.96901413 -199.87870346 261.96901413 -198.77261353 263.05349731 C-196.7257938 265.83004788 -196.34031863 267.90102129 -196.10498047 271.31567383 C-196.43498047 271.97567383 -196.76498047 272.63567383 -197.10498047 273.31567383 C-197.76498047 273.31567383 -198.42498047 273.31567383 -199.10498047 273.31567383 C-199.10498047 273.97567383 -199.10498047 274.63567383 -199.10498047 275.31567383 C-200.42684105 275.32780411 -200.42684105 275.32780411 -201.77540588 275.34017944 C-210.14433636 275.41863006 -218.51311688 275.50606567 -226.88185215 275.60320091 C-231.1826776 275.65281389 -235.48348255 275.69914205 -239.78442383 275.73754883 C-243.94724495 275.77485 -248.10987809 275.82132054 -252.27253532 275.87373734 C-253.84823188 275.8920465 -255.42396835 275.90723756 -256.99972725 275.91901779 C-278.18675271 276.08284246 -298.08491608 278.50527556 -315.10498047 292.31567383 C-315.76498047 293.30567383 -316.42498047 294.29567383 -317.10498047 295.31567383 C-317.76498047 295.31567383 -318.42498047 295.31567383 -319.10498047 295.31567383 C-319.37310547 295.91379883 -319.64123047 296.51192383 -319.91748047 297.12817383 C-321.10498047 299.31567383 -321.10498047 299.31567383 -322.43310547 300.49145508 C-336.43216879 315.76613398 -339.09112912 341.34904118 -338.25732422 361.03100586 C-337.11125016 378.21844336 -331.95868287 394.58817198 -320.89013672 407.99926758 C-319.10498047 410.31567383 -319.10498047 410.31567383 -319.10498047 412.31567383 C-318.54037109 412.57735352 -317.97576172 412.8390332 -317.39404297 413.10864258 C-314.9022392 414.42258006 -312.74985212 415.96089025 -310.47998047 417.62817383 C-290.56319833 431.56124929 -269.18362426 430.90797553 -245.88131118 430.85731554 C-241.67621721 430.85294814 -237.47123875 430.87284709 -233.26618958 430.89047241 C-225.31598461 430.92055581 -217.36587925 430.93241061 -209.41562206 430.93604887 C-195.17859308 430.94272658 -180.94163342 430.97195642 -166.70468885 431.02114522 C-161.72118457 431.03752513 -156.73782521 431.0430835 -151.75429666 431.03955483 C-148.64640981 431.03911461 -145.53857679 431.04672831 -142.43070602 431.05623055 C-141.00217088 431.05888893 -139.5736245 431.05820376 -138.14509392 431.05372047 C-126.28930516 431.0191145 -115.22143557 431.96141679 -104.16748047 436.44067383 C-103.40097168 436.74851807 -102.63446289 437.0563623 -101.84472656 437.37353516 C-81.85163349 445.66605371 -67.57668317 459.59567798 -58.79248047 479.44067383 C-57.87394005 481.72333389 -56.97581041 484.01438969 -56.10498047 486.31567383 C-55.78658203 487.14454102 -55.46818359 487.9734082 -55.14013672 488.82739258 C-46.19031407 515.05348979 -50.49638814 545.8779822 -61.79248047 570.56567383 C-71.92015055 589.65447607 -88.44295877 603.87802216 -109.10498047 610.31567383 C-118.50060998 612.70186545 -127.80984428 614.42443696 -137.52148438 614.47680664 C-138.22648575 614.48177155 -138.93148712 614.48673645 -139.65785217 614.49185181 C-141.96575935 614.50633425 -144.27359802 614.51324884 -146.58154297 614.51879883 C-147.37425976 614.52162621 -148.16697655 614.52445358 -148.98371506 614.52736664 C-153.17160113 614.54229597 -157.35945326 614.55156726 -161.54736328 614.5559082 C-165.8660306 614.5614106 -170.18438548 614.58549333 -174.50295448 614.61388016 C-177.83327143 614.63251015 -181.16351275 614.63771213 -184.49387741 614.63924408 C-186.08626403 614.64226592 -187.67864947 614.65027865 -189.27098465 614.66342926 C-191.49665503 614.68051195 -193.72155603 614.67860553 -195.94726562 614.67211914 C-197.84419662 614.67758759 -197.84419662 614.67758759 -199.77944946 614.6831665 C-203.36118756 614.28736129 -205.25994153 613.49005406 -208.10498047 611.31567383 C-208.73388672 609.37817383 -208.73388672 609.37817383 -208.66748047 607.31567383 C-208.66876953 606.63504883 -208.67005859 605.95442383 -208.67138672 605.25317383 C-207.8477337 602.43571247 -206.62409289 601.79057688 -204.10498047 600.31567383 C-200.94680786 599.93040466 -200.94680786 599.93040466 -197.171875 599.91503906 C-196.48176834 599.90806 -195.79166168 599.90108093 -195.0806427 599.89389038 C-192.79956846 599.87390608 -190.51894706 599.87441367 -188.23779297 599.87426758 C-186.64035844 599.86248382 -185.04293487 599.84911716 -183.44552612 599.83424377 C-179.23247129 599.7980292 -175.01951334 599.77786319 -170.80633545 599.76269531 C-164.09968461 599.73790941 -157.39324867 599.69752974 -150.68679428 599.64079475 C-148.36398828 599.62470869 -146.04139069 599.62070859 -143.71853638 599.61778259 C-125.94389932 599.53119693 -110.24938018 597.52975656 -95.50341797 586.92504883 C-93.10498047 585.31567383 -93.10498047 585.31567383 -91.10498047 585.31567383 C-90.77498047 584.32567383 -90.44498047 583.33567383 -90.10498047 582.31567383 C-89.44498047 582.31567383 -88.78498047 582.31567383 -88.10498047 582.31567383 C-88.10498047 581.65567383 -88.10498047 580.99567383 -88.10498047 580.31567383 C-87.44498047 580.31567383 -86.78498047 580.31567383 -86.10498047 580.31567383 C-85.73373047 579.48036133 -85.73373047 579.48036133 -85.35498047 578.62817383 C-84.10498047 576.31567383 -84.10498047 576.31567383 -82.21826172 574.03442383 C-77.16743596 567.53650381 -73.41703139 559.22894336 -71.10498047 551.31567383 C-70.82654297 550.37852539 -70.54810547 549.44137695 -70.26123047 548.47583008 C-65.81660922 530.51215253 -65.99885635 509.83178169 -72.10498047 492.31567383 C-72.35505859 491.5293457 -72.60513672 490.74301758 -72.86279297 489.93286133 C-73.51377751 488.0248032 -74.30696782 486.16706317 -75.10498047 484.31567383 C-75.42853516 483.55383789 -75.75208984 482.79200195 -76.08544922 482.00708008 C-82.94187994 467.00717533 -94.99621268 456.57266592 -110.10498047 450.31567383 C-120.23546972 446.69022894 -129.53941899 445.72439106 -140.21972656 445.74145508 C-141.78203228 445.72937131 -143.34432511 445.71551404 -144.90660095 445.70004272 C-148.24200562 445.67051771 -151.57717617 445.65283089 -154.91270065 445.6446228 C-160.20282985 445.63105514 -165.49246419 445.58738617 -170.78237915 445.53955078 C-182.01479606 445.44210826 -193.24731785 445.37716382 -204.47998047 445.31567383 C-216.60503418 445.2492689 -228.72989094 445.17697608 -240.85464346 445.06741238 C-246.09713392 445.02114203 -251.33927695 444.99334244 -256.5819509 444.98042297 C-259.8616851 444.96841963 -263.14114238 444.94012199 -266.4207325 444.90773392 C-267.92334015 444.89613207 -269.42601656 444.8910056 -270.92866707 444.89341354 C-284.52272788 444.90896701 -297.73189232 442.90508164 -309.79248047 436.25317383 C-310.44152344 435.91479492 -311.09056641 435.57641602 -311.75927734 435.2277832 C-313.55518347 434.28324254 -315.33099642 433.30077101 -317.10498047 432.31567383 C-318.56871094 431.51323242 -318.56871094 431.51323242 -320.06201172 430.69458008 C-320.73619141 430.23954102 -321.41037109 429.78450195 -322.10498047 429.31567383 C-322.10498047 428.65567383 -322.10498047 427.99567383 -322.10498047 427.31567383 C-322.90935547 427.04754883 -323.71373047 426.77942383 -324.54248047 426.50317383 C-325.38810547 426.11129883 -326.23373047 425.71942383 -327.10498047 425.31567383 C-327.43498047 424.32567383 -327.76498047 423.33567383 -328.10498047 422.31567383 C-328.76498047 422.31567383 -329.42498047 422.31567383 -330.10498047 422.31567383 C-330.10498047 421.65567383 -330.10498047 420.99567383 -330.10498047 420.31567383 C-330.76498047 420.31567383 -331.42498047 420.31567383 -332.10498047 420.31567383 C-333.78969218 418.43703847 -335.33009233 416.56883129 -336.85498047 414.56567383 C-337.30236572 413.97947266 -337.74975098 413.39327148 -338.21069336 412.78930664 C-350.36887522 396.43781509 -354.66681342 377.23143701 -354.55102539 357.18481445 C-354.5425116 354.94885012 -354.57141761 352.71545111 -354.60302734 350.47973633 C-354.65131899 340.21691623 -353.00422777 331.13821697 -350.10498047 321.31567383 C-349.87125732 320.4566748 -349.63753418 319.59767578 -349.39672852 318.71264648 C-346.5013025 308.24005106 -339.81812491 296.00797194 -332.10498047 288.31567383 C-331.44498047 288.31567383 -330.78498047 288.31567383 -330.10498047 288.31567383 C-329.83685547 287.67629883 -329.56873047 287.03692383 -329.29248047 286.37817383 C-328.10498047 284.31567383 -328.10498047 284.31567383 -325.10498047 283.31567383 C-325.10498047 282.65567383 -325.10498047 281.99567383 -325.10498047 281.31567383 C-307.68149395 266.10023284 -286.33275387 262.322003 -264.09716797 261.99926758 C-262.28721848 261.96809593 -262.28721848 261.96809593 -260.44070435 261.93629456 C-256.62051591 261.87138371 -252.80026408 261.8121883 -248.97998047 261.75317383 C-246.37580748 261.7099329 -243.7716407 261.66631691 -241.16748047 261.62231445 C-234.81337906 261.51576301 -228.45921585 261.41389266 -222.10498047 261.31567383 C-222.89267822 260.53321289 -223.68037598 259.75075195 -224.49194336 258.94458008 C-226.62555447 256.79801142 -228.59754064 254.62907947 -230.54248047 252.31567383 C-232.73308941 249.76957133 -234.91625454 247.53422186 -237.54248047 245.44067383 C-238.38810547 244.73942383 -239.23373047 244.03817383 -240.10498047 243.31567383 C-240.10498047 242.65567383 -240.10498047 241.99567383 -240.10498047 241.31567383 C-240.76498047 241.31567383 -241.42498047 241.31567383 -242.10498047 241.31567383 C-243.65576172 239.70629883 -243.65576172 239.70629883 -245.41748047 237.56567383 C-248.10731464 234.39233641 -250.84686186 231.90546041 -254.10498047 229.31567383 C-260.10498047 223.01567383 -260.10498047 223.01567383 -260.10498047 220.31567383 C-261.09498047 219.98567383 -262.08498047 219.65567383 -263.10498047 219.31567383 C-264.68787366 217.23775599 -266.09708454 215.20826952 -267.47998047 213.00317383 C-268.07770264 212.05692139 -268.07770264 212.05692139 -268.6875 211.09155273 C-280.73020124 191.56324575 -283.32480324 170.35865029 -278.5625 148.23217773 C-276.58847295 139.96317437 -272.31658855 132.62702546 -268.10498047 125.31567383 C-267.59064453 124.38368164 -267.07630859 123.45168945 -266.54638672 122.49145508 C-266.07072266 121.77344727 -265.59505859 121.05543945 -265.10498047 120.31567383 C-264.44498047 120.31567383 -263.78498047 120.31567383 -263.10498047 120.31567383 C-262.98316406 119.47262695 -262.98316406 119.47262695 -262.85888672 118.61254883 C-261.23490607 113.66487721 -256.62759857 110.02339765 -253.10498047 106.31567383 C-252.46044922 105.61829102 -251.81591797 104.9209082 -251.15185547 104.20239258 C-233.38591315 85.57801187 -208.94214257 73.77183421 -183.10498047 73.06567383 C-162.8237496 73.62177209 -145.39529943 81.30594481 -130.10498047 94.31567383 C-129.02603516 95.19352539 -129.02603516 95.19352539 -127.92529297 96.08911133 C-126.27552049 97.44735775 -124.68309176 98.87478961 -123.10498047 100.31567383 C-123.10498047 100.97567383 -123.10498047 101.63567383 -123.10498047 102.31567383 C-122.54810547 102.54254883 -121.99123047 102.76942383 -121.41748047 103.00317383 C-118.44338459 104.69117419 -116.38489182 106.78243899 -114.10498047 109.31567383 C-114.10498047 109.97567383 -114.10498047 110.63567383 -114.10498047 111.31567383 C-113.46560547 111.58379883 -112.82623047 111.85192383 -112.16748047 112.12817383 C-110.10498047 113.31567383 -110.10498047 113.31567383 -109.10498047 116.31567383 C-107.10481581 117.52449479 -107.10481581 117.52449479 -105.10498047 118.31567383 C-105.10498047 118.97567383 -105.10498047 119.63567383 -105.10498047 120.31567383 C-104.44498047 120.31567383 -103.78498047 120.31567383 -103.10498047 120.31567383 C-103.10498047 120.97567383 -103.10498047 121.63567383 -103.10498047 122.31567383 C-102.11498047 122.64567383 -101.12498047 122.97567383 -100.10498047 123.31567383 C-100.10498047 123.97567383 -100.10498047 124.63567383 -100.10498047 125.31567383 C-99.52748047 125.56317383 -98.94998047 125.81067383 -98.35498047 126.06567383 C-95.80388985 127.4829464 -94.1252494 129.2274967 -92.10498047 131.31567383 C-92.09911423 130.66438004 -92.09324799 130.01308624 -92.08720398 129.34205627 C-92.0225803 122.47809612 -91.93799631 115.61457543 -91.8425293 108.75097656 C-91.80955751 106.19960373 -91.78144221 103.64816282 -91.75854492 101.09667969 C-91.50960161 74.07838578 -89.21891718 52.04148309 -72.10498047 30.31567383 C-71.47591797 29.51387695 -70.84685547 28.71208008 -70.19873047 27.88598633 C-68.90257836 26.30391831 -67.51548118 24.79669957 -66.10498047 23.31567383 C-65.44498047 23.31567383 -64.78498047 23.31567383 -64.10498047 23.31567383 C-64.10498047 22.65567383 -64.10498047 21.99567383 -64.10498047 21.31567383 C-61.90949164 19.62730344 -59.7282276 18.08255667 -57.41748047 16.56567383 C-56.39895996 15.89459595 -56.39895996 15.89459595 -55.35986328 15.20996094 C-45.8700622 9.08804381 -36.11547728 4.82395968 -25.10498047 2.31567383 C-23.93684814 2.04412476 -23.93684814 2.04412476 -22.74511719 1.76708984 C-15.16593089 0.19605192 -7.70493745 -0.02373184 0 0 Z " fill="#1C7449" transform="translate(392.10498046875,19.684326171875)"/>
<path d="M0 0 C0.60521484 0.85891846 1.21042969 1.71783691 1.83398438 2.6027832 C2.79884766 3.56764648 2.79884766 3.56764648 3.78320312 4.55200195 C6.13346354 6.90226237 8.48372396 9.25252279 10.83398438 11.6027832 C10.04044052 11.61087006 9.24689667 11.61895691 8.42930603 11.62728882 C0.88446336 11.70581668 -6.66020183 11.79327276 -14.20482731 11.89031029 C-18.08191036 11.93987369 -21.95897127 11.98620057 -25.83618164 12.0246582 C-29.5905312 12.06202419 -33.34467493 12.1085085 -37.09884453 12.16084671 C-38.5182369 12.17912259 -39.93767291 12.19432481 -41.35713387 12.20612717 C-62.14828513 12.38488703 -81.54598139 15.11697688 -98.16601562 28.6027832 C-98.82601562 29.5927832 -99.48601562 30.5827832 -100.16601562 31.6027832 C-100.82601562 31.6027832 -101.48601562 31.6027832 -102.16601562 31.6027832 C-102.43414062 32.2009082 -102.70226562 32.7990332 -102.97851562 33.4152832 C-104.16601562 35.6027832 -104.16601562 35.6027832 -105.49414062 36.77856445 C-119.49320394 52.05324335 -122.15216428 77.63615056 -121.31835938 97.31811523 C-120.17228532 114.50555273 -115.01971802 130.87528136 -103.95117188 144.28637695 C-102.16601562 146.6027832 -102.16601562 146.6027832 -102.16601562 148.6027832 C-101.60140625 148.86446289 -101.03679687 149.12614258 -100.45507812 149.39575195 C-97.96327436 150.70968943 -95.81088728 152.24799963 -93.54101562 153.9152832 C-73.62423348 167.84835866 -52.24465941 167.1950849 -28.94234633 167.14442492 C-24.73725237 167.14005752 -20.5322739 167.15995646 -16.32722473 167.17758179 C-8.37701976 167.20766519 -0.42691441 167.21951998 7.52334279 167.22315824 C21.76037176 167.22983596 35.99733142 167.25906579 50.234276 167.3082546 C55.21778027 167.32463451 60.20113963 167.33019287 65.18466818 167.32666421 C68.29255504 167.32622399 71.40038805 167.33383768 74.50825882 167.34333992 C75.93679396 167.3459983 77.36534035 167.34531313 78.79387093 167.34082985 C90.64965968 167.30622387 101.71752928 168.24852616 112.77148438 172.7277832 C113.53799316 173.03562744 114.30450195 173.34347168 115.09423828 173.66064453 C135.08733136 181.95316308 149.36228167 195.88278736 158.14648438 215.7277832 C159.06502479 218.01044327 159.96315443 220.30149906 160.83398438 222.6027832 C161.15238281 223.43165039 161.47078125 224.26051758 161.79882812 225.11450195 C170.74865077 251.34059917 166.4425767 282.16509157 155.14648438 306.8527832 C145.0188143 325.94158544 128.49600608 340.16513154 107.83398438 346.6027832 C98.43835486 348.98897483 89.12912056 350.71154634 79.41748047 350.76391602 C78.35997841 350.77136337 78.35997841 350.77136337 77.28111267 350.77896118 C74.97320549 350.79344362 72.66536682 350.80035821 70.35742188 350.8059082 C69.56470509 350.80873558 68.7719883 350.81156296 67.95524979 350.81447601 C63.76736371 350.82940534 59.57951159 350.83867663 55.39160156 350.84301758 C51.07293424 350.84851997 46.75457937 350.8726027 42.43601036 350.90098953 C39.10569341 350.91961953 35.77545209 350.92482151 32.44508743 350.92635345 C30.85270081 350.9293753 29.26031538 350.93738803 27.66798019 350.95053864 C25.44230981 350.96762132 23.21740881 350.9657149 20.99169922 350.95922852 C19.09476822 350.96469696 19.09476822 350.96469696 17.15951538 350.97027588 C13.57777728 350.57447066 11.67902332 349.77716343 8.83398438 347.6027832 C8.20507812 345.6652832 8.20507812 345.6652832 8.27148438 343.6027832 C8.27019531 342.9221582 8.26890625 342.2415332 8.26757812 341.5402832 C9.09123114 338.72282184 10.31487195 338.07768626 12.83398438 336.6027832 C15.99215698 336.21751404 15.99215698 336.21751404 19.76708984 336.20214844 C20.4571965 336.19516937 21.14730316 336.18819031 21.85832214 336.18099976 C24.13939638 336.16101545 26.42001778 336.16152304 28.70117188 336.16137695 C30.29860641 336.14959319 31.89602997 336.13622653 33.49343872 336.12135315 C37.70649355 336.08513858 41.9194515 336.06497257 46.13262939 336.04980469 C52.83928023 336.02501879 59.54571617 335.98463911 66.25217056 335.92790413 C68.57497656 335.91181806 70.89757415 335.90781796 73.22042847 335.90489197 C90.99506552 335.8183063 106.68958466 333.81686594 121.43554688 323.2121582 C123.83398438 321.6027832 123.83398438 321.6027832 125.83398438 321.6027832 C126.16398437 320.6127832 126.49398438 319.6227832 126.83398438 318.6027832 C127.49398438 318.6027832 128.15398437 318.6027832 128.83398438 318.6027832 C128.83398438 317.9427832 128.83398438 317.2827832 128.83398438 316.6027832 C129.49398438 316.6027832 130.15398437 316.6027832 130.83398438 316.6027832 C131.20523438 315.7674707 131.20523438 315.7674707 131.58398438 314.9152832 C132.83398437 312.6027832 132.83398437 312.6027832 134.72070312 310.3215332 C139.77152888 303.82361319 143.52193345 295.51605274 145.83398438 287.6027832 C146.11242187 286.66563477 146.39085937 285.72848633 146.67773438 284.76293945 C151.12235562 266.7992619 150.94010849 246.11889107 144.83398438 228.6027832 C144.58390625 227.81645508 144.33382813 227.03012695 144.07617188 226.2199707 C143.42518734 224.31191258 142.63199702 222.45417255 141.83398438 220.6027832 C141.51042969 219.84094727 141.186875 219.07911133 140.85351562 218.29418945 C133.99708491 203.29428471 121.94275216 192.85977529 106.83398438 186.6027832 C96.70349512 182.97733832 87.39954586 182.01150044 76.71923828 182.02856445 C75.15693256 182.01648068 73.59463973 182.00262341 72.03236389 181.9871521 C68.69695923 181.95762709 65.36178867 181.93994026 62.02626419 181.93173218 C56.73613499 181.91816451 51.44650066 181.87449555 46.15658569 181.82666016 C34.92416878 181.72921763 23.69164699 181.6642732 12.45898438 181.6027832 C0.33393067 181.53637828 -11.7909261 181.46408545 -23.91567862 181.35452175 C-29.15816907 181.30825141 -34.40031211 181.28045181 -39.64298606 181.26753235 C-42.92272026 181.25552901 -46.20217754 181.22723137 -49.48176765 181.19484329 C-50.9843753 181.18324145 -52.48705172 181.17811498 -53.98970222 181.18052292 C-67.58376304 181.19607639 -80.79292747 179.19219101 -92.85351562 172.5402832 C-93.50255859 172.2019043 -94.15160156 171.86352539 -94.8203125 171.51489258 C-96.61621863 170.57035192 -98.39203157 169.58788039 -100.16601562 168.6027832 C-101.14183594 168.06782227 -102.11765625 167.53286133 -103.12304688 166.98168945 C-103.79722656 166.52665039 -104.47140625 166.07161133 -105.16601562 165.6027832 C-105.16601562 164.9427832 -105.16601562 164.2827832 -105.16601562 163.6027832 C-105.97039062 163.3346582 -106.77476563 163.0665332 -107.60351562 162.7902832 C-108.87195313 162.2024707 -108.87195313 162.2024707 -110.16601562 161.6027832 C-110.49601562 160.6127832 -110.82601562 159.6227832 -111.16601562 158.6027832 C-111.82601562 158.6027832 -112.48601562 158.6027832 -113.16601562 158.6027832 C-113.16601562 157.9427832 -113.16601562 157.2827832 -113.16601562 156.6027832 C-113.82601562 156.6027832 -114.48601562 156.6027832 -115.16601562 156.6027832 C-116.85072733 154.72414785 -118.39112749 152.85594067 -119.91601562 150.8527832 C-120.36340088 150.26658203 -120.81078613 149.68038086 -121.27172852 149.07641602 C-133.42991037 132.72492446 -137.72784858 113.51854638 -137.61206055 93.47192383 C-137.60354676 91.2359595 -137.63245277 89.00256049 -137.6640625 86.7668457 C-137.71235415 76.5040256 -136.06526293 67.42532635 -133.16601562 57.6027832 C-132.93229248 56.74378418 -132.69856934 55.88478516 -132.45776367 54.99975586 C-129.56233765 44.52716044 -122.87916007 32.29508131 -115.16601562 24.6027832 C-114.50601563 24.6027832 -113.84601563 24.6027832 -113.16601562 24.6027832 C-112.89789063 23.9634082 -112.62976563 23.3240332 -112.35351562 22.6652832 C-111.16601562 20.6027832 -111.16601562 20.6027832 -108.16601562 19.6027832 C-108.16601562 18.9427832 -108.16601562 18.2827832 -108.16601562 17.6027832 C-87.1386201 -0.75985022 -61.62937984 -1.57436362 -35.33325195 -2.17456055 C-32.67020696 -2.23990734 -30.00911023 -2.31325188 -27.34692383 -2.40209961 C-23.48864411 -2.52649133 -19.63082699 -2.61780328 -15.77148438 -2.7019043 C-13.9870417 -2.76871902 -13.9870417 -2.76871902 -12.16654968 -2.83688354 C-3.91547983 -2.96468973 -3.91547983 -2.96468973 0 0 Z " fill="#606363" transform="translate(175.166015625,283.397216796875)"/>
<path d="M0 0 C2.50545269 2.0452675 4.73512015 4.17269226 6.9140625 6.5625 C7.4915625 6.27375 8.0690625 5.985 8.6640625 5.6875 C10.74739583 4.64583333 12.83072917 3.60416667 14.9140625 2.5625 C14.9140625 1.9025 14.9140625 1.2425 14.9140625 0.5625 C27.33131553 -6.10413994 40.24171577 -8.99987227 54.2265625 -5.375 C61.54883704 -2.77317656 68.7585143 1.72354193 73.9140625 7.5625 C73.9140625 8.2225 73.9140625 8.8825 73.9140625 9.5625 C74.5740625 9.5625 75.2340625 9.5625 75.9140625 9.5625 C76.90159314 11.28690365 77.87875056 13.01725026 78.8515625 14.75 C79.39683594 15.71292969 79.94210937 16.67585938 80.50390625 17.66796875 C84.39312506 25.6511021 83.21179022 35.35878169 83.26416016 44.03662109 C83.28076268 46.05399069 83.30810876 48.07130046 83.34619141 50.08837891 C83.40093908 53.00714403 83.42282413 55.92454079 83.4375 58.84375 C83.46016937 59.74283081 83.48283875 60.64191162 83.50619507 61.5682373 C83.49110866 66.03786545 83.36549742 67.96312703 80.60009766 71.63476562 C77.06578731 74.17129667 75.17940086 74.24800081 70.9140625 73.5625 C68.16077229 71.76687595 66.38778789 70.50995078 64.9140625 67.5625 C64.82954073 64.69138355 64.80132403 61.83985745 64.80859375 58.96875 C64.79512461 57.19790458 64.7800991 55.42707045 64.76367188 53.65625 C64.74095296 50.86939683 64.72646657 48.08380716 64.73901367 45.296875 C65.1473438 30.24332406 65.1473438 30.24332406 57.9140625 17.5625 C55.02322372 15.53534678 52.15367063 13.9555315 48.9140625 12.5625 C48.2540625 12.2325 47.5940625 11.9025 46.9140625 11.5625 C39.54698048 10.79430854 33.164842 11.39125999 26.9140625 15.5625 C24.59922367 17.70347755 22.66636798 19.94265968 20.9140625 22.5625 C20.39175049 23.33811279 20.39175049 23.33811279 19.85888672 24.12939453 C18.44379899 27.77351968 18.61561015 31.41784297 18.60546875 35.2734375 C18.58030783 37.01042001 18.55490982 38.7473991 18.52929688 40.484375 C18.50057828 43.21190497 18.47654958 45.93937554 18.45776367 48.66699219 C18.43604249 51.30695179 18.39659919 53.9462192 18.35546875 56.5859375 C18.35535294 57.39549896 18.35523712 58.20506042 18.3551178 59.03915405 C18.26996905 63.93818044 17.58512506 67.29885916 14.9140625 71.5625 C12.42950145 73.51465511 10.64938203 73.59618661 7.4765625 74 C2.86595883 73.43378551 1.7499709 72.18484933 -1.0859375 68.5625 C-1.57111792 65.76294672 -1.76285442 63.55950656 -1.72265625 60.76953125 C-1.73822319 59.6504261 -1.73822319 59.6504261 -1.75410461 58.50871277 C-1.78369562 56.13033782 -1.78043671 53.75352469 -1.7734375 51.375 C-1.78527857 48.25631849 -1.81087755 45.1380161 -1.84765625 42.01953125 C-1.86048897 40.9007962 -1.86048897 40.9007962 -1.87358093 39.75946045 C-2.02873186 31.53674841 -2.64577195 24.09069866 -8.0859375 17.5625 C-14.3366552 11.93685407 -19.78047696 10.61706939 -28.0859375 10.5625 C-31.48575444 11.00948788 -34.77057326 11.69230678 -38.0859375 12.5625 C-38.0859375 13.2225 -38.0859375 13.8825 -38.0859375 14.5625 C-40.02558125 16.35328737 -42.0770526 17.96760075 -44.140625 19.61328125 C-48.08818407 23.56876715 -48.31514049 27.77334827 -48.36239624 33.09936523 C-48.36139923 33.93282471 -48.36040222 34.76628418 -48.359375 35.625 C-48.37965742 37.40886052 -48.40050808 39.19271464 -48.421875 40.9765625 C-48.44449428 43.77446918 -48.46095758 46.57212317 -48.46679688 49.37011719 C-48.47632383 52.08053626 -48.51009237 54.78983285 -48.546875 57.5 C-48.54182953 58.33345947 -48.53678406 59.16691895 -48.53158569 60.02563477 C-48.59987544 64.06390745 -48.78377583 66.08565051 -50.99682617 69.578125 C-53.76440015 72.20694834 -55.43522994 72.4499032 -59.1171875 72.7109375 C-62.45914109 72.45896481 -64.76209858 70.88633892 -67.0859375 68.5625 C-67.19956605 67.16809095 -67.24545919 65.76806253 -67.26293945 64.36914062 C-67.27577469 63.47731079 -67.28860992 62.58548096 -67.30183411 61.66662598 C-67.30922104 60.6938269 -67.31660797 59.72102783 -67.32421875 58.71875 C-67.3322905 57.72049194 -67.34036224 56.72223389 -67.34867859 55.69372559 C-67.36254452 53.5718765 -67.37325538 51.45000488 -67.38110352 49.328125 C-67.39821868 46.10372454 -67.44207058 42.88037543 -67.48632812 39.65625 C-67.49646335 37.59375754 -67.50497685 35.53125635 -67.51171875 33.46875 C-67.52922684 32.51214478 -67.54673492 31.55553955 -67.56477356 30.56994629 C-67.53188838 20.26177413 -63.38075466 12.26634737 -56.4609375 4.6875 C-54.0859375 2.5625 -54.0859375 2.5625 -52.0859375 2.5625 C-52.0859375 1.9025 -52.0859375 1.2425 -52.0859375 0.5625 C-35.68406427 -8.79978929 -16.29542895 -11.85122105 0 0 Z " fill="#5F6262" transform="translate(520.0859375,334.4375)"/>
<path d="M0 0 C3.33761045 2.15090451 4.73470933 3.20412799 6 7 C6.09961792 9.17021091 6.13829866 11.34338425 6.14526367 13.51586914 C6.14862228 14.17324066 6.1519809 14.83061218 6.15544128 15.50790405 C6.16494668 17.683674 6.16689479 19.85936682 6.16796875 22.03515625 C6.17118378 23.55390962 6.17454804 25.07266268 6.17805481 26.59141541 C6.18404658 29.77994503 6.18589488 32.96844756 6.18530273 36.15698242 C6.1852016 40.21961912 6.19880249 44.28207911 6.21607494 48.34467411 C6.22726488 51.48561887 6.22921974 54.62652202 6.22869301 57.76748466 C6.22986459 59.26362143 6.23423958 60.75975957 6.24202538 62.25587654 C6.33706319 82.42083477 6.33706319 82.42083477 1.5625 91.375 C1.15128906 92.16648437 0.74007812 92.95796875 0.31640625 93.7734375 C-0.99849142 95.9974484 -2.31873485 98.03628231 -4 100 C-4.66 100 -5.32 100 -6 100 C-6.21140625 100.58523438 -6.4228125 101.17046875 -6.640625 101.7734375 C-8.49339775 104.80815149 -10.66883602 105.88513875 -13.75 107.625 C-15.28914063 108.51058594 -15.28914063 108.51058594 -16.859375 109.4140625 C-26.27498393 114.16871079 -37.11249794 114.47475449 -47.375 112.27734375 C-52.90728846 110.37946146 -57.5347099 107.77068942 -62 104 C-62 103.34 -62 102.68 -62 102 C-62.59683594 101.75378906 -63.19367188 101.50757813 -63.80859375 101.25390625 C-70.39937971 97.48270787 -73.06736544 88.9241152 -75 82 C-75.33 81.01 -75.66 80.02 -76 79 C-76.82398155 65.9272158 -74.84615115 56.20279278 -68 45 C-67.34 45 -66.68 45 -66 45 C-65.75636719 44.41347656 -65.51273437 43.82695312 -65.26171875 43.22265625 C-61.7950473 37.11573348 -54.4749008 33.19902291 -48 31 C-35.13223915 28.46571145 -24.56695139 30.16361008 -13 36 C-12.98541748 35.14768799 -12.97083496 34.29537598 -12.95581055 33.41723633 C-12.89456715 30.23928825 -12.82037971 27.06197454 -12.73754883 23.88452148 C-12.70440194 22.51224042 -12.67633829 21.13982638 -12.65356445 19.76733398 C-12.61983234 17.78862234 -12.5659851 15.81028624 -12.51171875 13.83203125 C-12.48553467 12.64327393 -12.45935059 11.4545166 -12.43237305 10.22973633 C-11.9610609 6.70913309 -11.12461507 4.82080954 -9 2 C-5.48746854 -0.34168764 -4.13530644 -0.49623677 0 0 Z M-54 56 C-57.96873225 62.32477331 -59.75088784 68.49112157 -59 76 C-57.27180434 83.2665865 -53.39076977 88.53959857 -47.25 92.8125 C-41.65691338 96.07162942 -36.10865841 96.6316951 -29.8125 95.3125 C-22.95602812 93.24876985 -17.97158261 88.84636695 -14 83 C-11.01716575 75.54291437 -11.22677952 68.48769531 -14 61 C-17.2382569 55.21739839 -21.72222233 50.46080135 -28 48 C-31.30238851 47.64503922 -31.30238851 47.64503922 -34.875 47.6875 C-36.66550781 47.66236328 -36.66550781 47.66236328 -38.4921875 47.63671875 C-44.62745769 48.27210865 -49.85791544 51.44954091 -54 56 Z " fill="#5F6161" transform="translate(352,297)"/>
<path d="M0 0 C9.37206673 0.21558023 16.09179145 3.51079324 24.0390625 8.07421875 C24.0390625 8.73421875 24.0390625 9.39421875 24.0390625 10.07421875 C24.6371875 10.33976562 25.2353125 10.6053125 25.8515625 10.87890625 C31.81514539 14.13757833 35.78232874 20.8319488 38.0390625 27.07421875 C40.12979273 36.38382097 40.38271645 45.70633517 40.35473633 55.19677734 C40.35153661 57.46759419 40.37528025 59.73715179 40.40039062 62.0078125 C40.40266085 63.4752588 40.4033684 64.94270855 40.40234375 66.41015625 C40.40532471 67.7151709 40.40830566 69.02018555 40.41137695 70.36474609 C39.98261837 74.63658731 38.9832147 77.27185692 37.0390625 81.07421875 C33.94286209 83.52982597 30.88946419 83.39508556 27.0390625 83.07421875 C24.7890625 82.38671875 24.7890625 82.38671875 23.0390625 81.07421875 C22.33045034 79.4249489 21.6594965 77.75864265 21.0390625 76.07421875 C20.31460938 76.42355469 19.59015625 76.77289063 18.84375 77.1328125 C8.98888639 81.77116831 8.98888639 81.77116831 4.0390625 82.07421875 C3.19085938 82.13609375 2.34265625 82.19796875 1.46875 82.26171875 C-9.53032536 82.72121015 -19.52891144 80.27487797 -27.96484375 72.984375 C-28.62355469 72.35402344 -29.28226563 71.72367187 -29.9609375 71.07421875 C-30.93353516 70.14416016 -30.93353516 70.14416016 -31.92578125 69.1953125 C-36.53247278 64.37435625 -38.98285223 59.4040916 -40.9609375 53.07421875 C-41.198125 52.33171875 -41.4353125 51.58921875 -41.6796875 50.82421875 C-44.38553255 40.85531595 -42.41470744 29.77475034 -37.72265625 20.671875 C-35.40225766 16.77716468 -35.40225766 16.77716468 -33.9609375 15.07421875 C-33.3009375 15.07421875 -32.6409375 15.07421875 -31.9609375 15.07421875 C-31.6309375 14.08421875 -31.3009375 13.09421875 -30.9609375 12.07421875 C-22.10055427 3.37530036 -12.08150059 0.30283445 0 0 Z M-19.9609375 26.07421875 C-24.40131454 32.10044473 -25.46533355 38.29840062 -24.4921875 45.5859375 C-22.90882002 53.00215134 -19.15339426 57.80986784 -12.9609375 62.07421875 C-7.73557693 64.88787444 -1.74974029 65.65474546 4.0390625 64.44921875 C11.79355403 62.10766641 17.04909388 58.20052425 20.96484375 51.0234375 C23.23970858 44.77789952 23.4221743 37.89597505 21.1484375 31.61328125 C17.7810203 25.75397532 12.86062084 21.20284209 6.6015625 18.69921875 C-3.72228822 16.88801687 -12.42497651 18.53825776 -19.9609375 26.07421875 Z " fill="#5F6161" transform="translate(229.9609375,324.92578125)"/>
<path d="M0 0 C0.95132813 -0.02449219 1.90265625 -0.04898437 2.8828125 -0.07421875 C13.62374433 -0.11835957 22.20089712 4.39024131 30.25 11.375 C38.66909975 21.0577545 41.39070184 31.0929237 41.453125 43.65625 C41.45882507 44.54735474 41.46452515 45.43845947 41.47039795 46.35656738 C41.47981976 48.23590924 41.48637069 50.1152674 41.49023438 51.99462891 C41.49996678 54.86520064 41.53102734 57.735064 41.5625 60.60546875 C41.56902822 62.4348916 41.5742794 64.26431954 41.578125 66.09375 C41.5904718 66.94908325 41.6028186 67.8044165 41.61553955 68.68566895 C41.59794028 73.40250993 41.35225079 76.56942697 38.25 80.375 C34.48124125 82.88750583 32.71849866 82.90516086 28.25 82.375 C25.80310732 80.93785124 24.26768558 79.44189742 22.25 77.375 C22.25 76.715 22.25 76.055 22.25 75.375 C21.095 75.99375 19.94 76.6125 18.75 77.25 C7.39859869 82.83655353 -4.64903759 82.88158232 -16.58203125 78.85546875 C-22.01198982 76.31791721 -26.59911466 72.68393508 -30.75 68.375 C-30.75 67.715 -30.75 67.055 -30.75 66.375 C-31.41 66.375 -32.07 66.375 -32.75 66.375 C-40.20487965 54.04397265 -42.7725507 42.10512046 -39.5625 27.8828125 C-36.02506989 16.96439841 -27.93941571 8.6184605 -17.92578125 3.3828125 C-17.20777344 3.05023438 -16.48976563 2.71765625 -15.75 2.375 C-15.05777344 2.00890625 -14.36554688 1.6428125 -13.65234375 1.265625 C-9.13855364 -0.11949498 -4.69465126 0.00625954 0 0 Z M-18.75 26.375 C-23.03350858 32.22912839 -23.18839336 38.34818066 -22.75 45.375 C-21.68891927 51.74148436 -17.27571737 56.04494334 -12.75 60.375 C-7.03429903 64.18546732 -0.91481592 64.93668582 5.75 63.8125 C12.04276666 62.19311791 16.39106571 58.47853091 20.625 53.6875 C24.0216943 46.76346932 25.06695983 39.76093718 22.93359375 32.30078125 C20.70738039 26.02922019 16.75253997 22.86415849 11.25 19.375 C0.2741521 14.23736907 -10.74875646 17.99173422 -18.75 26.375 Z " fill="#5E6161" transform="translate(404.75,325.625)"/>
<path d="M0 0 C0.86625 0.7425 1.7325 1.485 2.625 2.25 C3.511875 2.971875 4.39875 3.69375 5.3125 4.4375 C9.47803553 9.50369187 10.96709745 14.77240172 10.625 21.3125 C9.68013056 27.85546688 6.5531254 32.73313286 1.6875 37.125 C-3.52827058 40.74410612 -8.04761938 41.89346244 -14.375 41.25 C-17.47834393 40.10979376 -20.42868049 38.74654324 -23.375 37.25 C-23.34019531 38.37019531 -23.30539062 39.49039063 -23.26953125 40.64453125 C-23.24139161 42.11717251 -23.21409163 43.58982998 -23.1875 45.0625 C-23.16236328 45.80048828 -23.13722656 46.53847656 -23.11132812 47.29882812 C-23.03739089 52.74553783 -23.03739089 52.74553783 -24.7265625 55.26953125 C-26.375 56.25 -26.375 56.25 -28.9375 56.125 C-31.375 55.25 -31.375 55.25 -33.375 52.25 C-33.59506731 49.60900739 -33.70299602 47.07618558 -33.7109375 44.43359375 C-33.7175943 43.66249771 -33.7242511 42.89140167 -33.73110962 42.09693909 C-33.74123596 40.46202984 -33.74592664 38.82707925 -33.74560547 37.19213867 C-33.74994215 34.72047117 -33.7861562 32.25064404 -33.82421875 29.77929688 C-33.89557826 19.81199531 -33.58124682 11.31906668 -26.9375 3.3125 C-18.91134368 -3.14757703 -9.44933698 -4.89965621 0 0 Z M-21.375 12.25 C-21.82875 12.848125 -22.2825 13.44625 -22.75 14.0625 C-23.74993695 17.56227934 -23.32124559 20.80100338 -22.375 24.25 C-20.56181438 27.22880495 -19.08676259 28.81503397 -16.125 30.625 C-12.34349004 31.48443408 -9.03222654 31.49862886 -5.375 30.25 C-1.84136543 27.16746771 -0.21474314 24.85532819 0.625 20.25 C0.625 15.88002084 0.05006562 13.84578696 -2.375 10.25 C-6.13965589 6.83573416 -9.03251991 6.682843 -13.96484375 6.828125 C-17.6841568 7.47915549 -19.20525161 9.26659596 -21.375 12.25 Z " fill="#267A52" transform="translate(454.375,225.75)"/>
<path d="M0 0 C2.39263407 0.66771183 4.22097385 1.22097385 6 3 C6.08865208 5.8843382 6.11521296 8.74462158 6.09765625 11.62890625 C6.0962413 12.49313705 6.09482635 13.35736786 6.09336853 14.24778748 C6.08775239 17.01939292 6.07519719 19.7909188 6.0625 22.5625 C6.05748708 24.4368478 6.05292381 26.31119685 6.04882812 28.18554688 C6.03777772 32.79039544 6.0205023 37.39518421 6 42 C3.1875 43.125 3.1875 43.125 0 44 C-0.99 43.34 -1.98 42.68 -3 42 C-5.20030665 42.23795563 -5.20030665 42.23795563 -7.5625 42.9375 C-14.26985339 44.43563879 -20.14939163 44.50598178 -26.3125 41.25 C-33.24543873 35.4456792 -36.43573232 31.0784091 -37.4375 22.0625 C-37.12962633 15.53301264 -34.43743747 9.94811374 -29.625 5.5625 C-23.85911297 1.15257369 -18.09440512 0.32022251 -11 1 C-9.1128125 1.5878125 -9.1128125 1.5878125 -7.1875 2.1875 C-6.135625 2.455625 -5.08375 2.72375 -4 3 C-2.63838689 2.03886134 -1.30144802 1.04115841 0 0 Z M-24 14 C-24 14.66 -24 15.32 -24 16 C-24.66 16 -25.32 16 -26 16 C-26.89394442 23.32700111 -26.89394442 23.32700111 -24.72265625 30.1328125 C-21.76162991 32.91255151 -19.00772155 34.36596034 -14.9375 34.6875 C-9.91538408 33.81062262 -8.4497948 32.69620871 -5 29 C-2.67631439 25.05983744 -2.88259826 22.37649015 -4 18 C-4.94324865 15.24885809 -5.83234627 14.14225165 -8.0625 12.25 C-13.33031497 10.00837661 -19.88887226 9.35263821 -24 14 Z " fill="#1F764C" transform="translate(412,222)"/>
<path d="M0 0 C3.93928315 3.46545428 6.17227616 7.25431249 6.65625 12.45703125 C6.65625 15.42703125 6.65625 18.39703125 6.65625 21.45703125 C-3.57375 21.45703125 -13.80375 21.45703125 -24.34375 21.45703125 C-24.01375 22.77703125 -23.68375 24.09703125 -23.34375 25.45703125 C-19.00956333 27.85042283 -14.61162477 27.85119229 -9.76953125 28.11328125 C-7.34375 28.45703125 -7.34375 28.45703125 -5.34375 30.45703125 C-5.21875 33.58203125 -5.21875 33.58203125 -5.34375 36.45703125 C-10.99684338 39.05439848 -16.36530956 38.57685997 -22.34375 37.45703125 C-24.6796875 36.41015625 -24.6796875 36.41015625 -26.34375 35.45703125 C-26.34375 34.79703125 -26.34375 34.13703125 -26.34375 33.45703125 C-27.1790625 33.17859375 -27.1790625 33.17859375 -28.03125 32.89453125 C-31.62130247 30.66287701 -33.76757796 28.33256015 -35.34375 24.45703125 C-36.41761598 17.36951579 -36.63944579 10.52354217 -32.78125 4.26953125 C-24.72273323 -5.82262064 -10.48968005 -7.45885036 0 0 Z M-24.34375 10.45703125 C-24.67375 11.11703125 -25.00375 11.77703125 -25.34375 12.45703125 C-18.74375 12.45703125 -12.14375 12.45703125 -5.34375 12.45703125 C-5.9897059 8.60610245 -5.9897059 8.60610245 -7.84375 6.70703125 C-14.40213028 3.42784111 -19.90613472 4.6326612 -24.34375 10.45703125 Z " fill="#1D744A" transform="translate(333.34375,227.54296875)"/>
<path d="M0 0 C4.52853655 3.99398769 6.28032882 7.2396802 7.06640625 13.234375 C7.22753906 14.37261719 7.38867188 15.51085937 7.5546875 16.68359375 C7.75390625 19.546875 7.75390625 19.546875 6.75390625 21.546875 C-3.14609375 21.876875 -13.04609375 22.206875 -23.24609375 22.546875 C-18.48523874 27.74058702 -18.48523874 27.74058702 -12.62109375 28.171875 C-7.67663099 28.23960737 -7.67663099 28.23960737 -5.390625 29.87109375 C-4.24609375 31.546875 -4.24609375 31.546875 -4.55859375 34.734375 C-4.78546875 35.6625 -5.01234375 36.590625 -5.24609375 37.546875 C-13.34737194 38.80370881 -19.94484379 38.93410692 -27.03125 34.40625 C-31.15157572 31.20717647 -33.79821796 27.78024219 -34.828125 22.64453125 C-35.48421598 14.00414667 -34.74648001 8.53385214 -29.24609375 1.546875 C-20.65367069 -6.06355686 -9.57238013 -6.36780363 0 0 Z M-23.24609375 8.546875 C-23.57609375 9.866875 -23.90609375 11.186875 -24.24609375 12.546875 C-17.64609375 12.546875 -11.04609375 12.546875 -4.24609375 12.546875 C-5.72248378 7.48678861 -5.72248378 7.48678861 -9.24609375 5.546875 C-14.45716743 4.7954655 -19.14517171 4.95856821 -23.24609375 8.546875 Z " fill="#1D754A" transform="translate(514.24609375,227.453125)"/>
<path d="M0 0 C0.763125 0.20625 1.52625 0.4125 2.3125 0.625 C2.9725 3.265 3.6325 5.905 4.3125 8.625 C6.10107422 8.68107422 6.10107422 8.68107422 7.92578125 8.73828125 C9.492219 8.80394032 11.05862384 8.87038768 12.625 8.9375 C13.41068359 8.96005859 14.19636719 8.98261719 15.00585938 9.00585938 C15.76318359 9.04130859 16.52050781 9.07675781 17.30078125 9.11328125 C18.34552612 9.15255737 18.34552612 9.15255737 19.41137695 9.19262695 C21.85763568 9.74898039 22.80435997 10.64706768 24.3125 12.625 C24.1875 15.1875 24.1875 15.1875 23.3125 17.625 C20.26568939 19.65620707 19.71131676 19.87159875 16.30078125 19.8203125 C15.54345703 19.81386719 14.78613281 19.80742187 14.00585938 19.80078125 C12.82733398 19.77564453 12.82733398 19.77564453 11.625 19.75 C10.82771484 19.74097656 10.03042969 19.73195312 9.20898438 19.72265625 C7.243361 19.69911585 5.27789225 19.66324547 3.3125 19.625 C3.64768698 30.05204674 3.64768698 30.05204674 7.3125 39.625 C10.59593324 41.8139555 11.97093462 41.91846423 15.8125 42.125 C19.65406538 42.33153577 21.02906676 42.4360445 24.3125 44.625 C25.25 46.5 25.25 46.5 25.3125 48.625 C24 50.875 24 50.875 21.3125 52.625 C15.0592194 53.62861294 8.7961812 52.86071251 3.3125 49.625 C-3.16020078 44.45449937 -5.50088913 39.75328449 -6.6875 31.625 C-7.03369042 24.24299838 -6.69252142 16.81791775 -6.375 9.4375 C-6.35260254 8.69459717 -6.33020508 7.95169434 -6.30712891 7.1862793 C-6.19921875 5.08203125 -6.19921875 5.08203125 -5.6875 1.625 C-2.6875 -0.375 -2.6875 -0.375 0 0 Z " fill="#257A51" transform="translate(269.6875,213.375)"/>
<path d="M0 0 C1.03930664 0.02030273 1.03930664 0.02030273 2.09960938 0.04101562 C3.79591265 0.07611155 5.49181136 0.12991057 7.1875 0.1875 C7.8125 2.5 7.8125 2.5 8.1875 5.1875 C6.1875 8.1875 6.1875 8.1875 3.54296875 8.7421875 C2.49753906 8.84789062 1.45210938 8.95359375 0.375 9.0625 C-4.84070535 9.74198425 -4.84070535 9.74198425 -9 12.6875 C-11.50377355 16.14098076 -11.94647726 17.91515782 -12.05859375 22.125 C-12.09146484 23.10210937 -12.12433594 24.07921875 -12.15820312 25.0859375 C-12.21939773 27.153534 -12.27669001 29.2212497 -12.33007812 31.2890625 C-12.36423828 32.26617187 -12.39839844 33.24328125 -12.43359375 34.25 C-12.4586499 35.14847656 -12.48370605 36.04695313 -12.50952148 36.97265625 C-12.8125 39.1875 -12.8125 39.1875 -14.8125 41.1875 C-18.10964793 40.85778521 -19.4351839 40.5648161 -21.8125 38.1875 C-22.29357727 34.85593883 -22.18290981 31.48731504 -22.1875 28.125 C-22.21199219 27.20783203 -22.23648437 26.29066406 -22.26171875 25.34570312 C-22.29525189 17.45982632 -20.51486681 11.374907 -15.375 5.3125 C-10.2255441 1.0422195 -6.69666043 -0.24992321 0 0 Z " fill="#277B53" transform="translate(363.8125,223.8125)"/>
<path d="M0 0 C4.875 1.75 4.875 1.75 6 4 C6.1111413 6.74808547 6.1641102 9.47006869 6.16796875 12.21875 C6.17129715 13.03243042 6.17462555 13.84611084 6.17805481 14.68444824 C6.18312075 16.4060001 6.18546324 18.12756179 6.18530273 19.84912109 C6.18749123 22.48942123 6.20565567 25.12930497 6.22460938 27.76953125 C6.22754291 29.44010273 6.22952797 31.11067621 6.23046875 32.78125 C6.23765427 33.57398315 6.24483978 34.36671631 6.25224304 35.18347168 C6.22882682 40.77117318 6.22882682 40.77117318 4 43 C1 43.3125 1 43.3125 -2 43 C-4.49067291 39.26399064 -4.32324941 36.30202267 -4.3359375 31.97265625 C-4.3425943 31.18733017 -4.3492511 30.40200409 -4.35610962 29.59288025 C-4.36622915 27.93279359 -4.37092685 26.2726663 -4.37060547 24.61254883 C-4.37497846 22.07500096 -4.41130172 19.5391932 -4.44921875 17.00195312 C-4.45508717 15.38802678 -4.4590564 13.77409217 -4.4609375 12.16015625 C-4.47530853 11.4027565 -4.48967957 10.64535675 -4.50448608 9.86500549 C-4.47291651 6.21841002 -4.29983996 4.37095724 -1.97119141 1.48999023 C-1.32069824 0.99829346 -0.67020508 0.50659668 0 0 Z " fill="#1E754C" transform="translate(471,222)"/>
<path d="M0 0 C2.875 -0.1875 2.875 -0.1875 6 0 C8 3 8 3 7.6875 5.625 C7 8 7 8 6 9 C3.66055264 8.71269945 1.3260857 8.38063221 -1 8 C-1.93065133 5.39417629 -2.14917407 4.35801776 -1.0625 1.75 C-0.711875 1.1725 -0.36125 0.595 0 0 Z " fill="#35835D" transform="translate(469,211)"/>
<path d="M0 0 C0.66 0.33 1.32 0.66 2 1 C-2.95 5.95 -7.9 10.9 -13 16 C-13 12.25983417 -12.0658409 11.54723807 -9.625 8.8125 C-8.68527344 7.73935547 -8.68527344 7.73935547 -7.7265625 6.64453125 C-6 5 -6 5 -4 5 C-4 4.34 -4 3.68 -4 3 C-2 1.375 -2 1.375 0 0 Z " fill="#519474" transform="translate(332,38)"/>
<path d="M0 0 C0.66 0.33 1.32 0.66 2 1 C-1.63 4.63 -5.26 8.26 -9 12 C-9.66 11.67 -10.32 11.34 -11 11 C-10.67 10.34 -10.34 9.68 -10 9 C-9.34 9 -8.68 9 -8 9 C-7.67 8.01 -7.34 7.02 -7 6 C-5.37109375 4.39453125 -5.37109375 4.39453125 -3.4375 2.8125 C-2.79683594 2.28269531 -2.15617188 1.75289063 -1.49609375 1.20703125 C-1.00238281 0.80871094 -0.50867188 0.41039062 0 0 Z " fill="#848787" transform="translate(206,331)"/>
</svg>
