<?xml version="1.0" standalone="no"?>
<!DOCTYPE svg PUBLIC "-//W3C//DTD SVG 20010904//EN"
 "http://www.w3.org/TR/2001/REC-SVG-20010904/DTD/svg10.dtd">
<svg version="1.0" xmlns="http://www.w3.org/2000/svg"
 width="2000.000000pt" height="2000.000000pt" viewBox="0 0 2000.000000 2000.000000"
 preserveAspectRatio="xMidYMid meet">

<g transform="translate(0.000000,2000.000000) scale(0.100000,-0.100000)"
fill="#000000" stroke="none">
<path d="M10775 19380 c-186 -16 -311 -31 -333 -40 -12 -6 -55 -13 -95 -16
-40 -4 -76 -10 -82 -14 -5 -5 -32 -13 -60 -19 -99 -21 -160 -36 -170 -42 -5
-4 -26 -10 -45 -14 -19 -4 -44 -14 -55 -21 -11 -8 -31 -14 -45 -14 -14 0 -34
-7 -44 -15 -11 -8 -26 -15 -33 -15 -13 0 -134 -53 -163 -71 -8 -5 -22 -12 -30
-15 -35 -13 -119 -56 -165 -84 -27 -16 -59 -34 -70 -40 -53 -29 -198 -129
-203 -142 -2 -5 -10 -8 -17 -8 -8 0 -18 -6 -22 -13 -4 -7 -20 -20 -35 -29 -14
-10 -86 -77 -160 -150 -127 -126 -280 -314 -344 -423 -16 -27 -34 -59 -41 -70
-7 -11 -17 -31 -23 -45 -6 -13 -14 -27 -18 -30 -8 -6 -32 -54 -62 -125 -12
-27 -27 -63 -35 -80 -35 -76 -45 -104 -45 -122 0 -10 -4 -23 -9 -28 -6 -6 -14
-28 -20 -50 -6 -22 -18 -65 -27 -95 -9 -30 -22 -89 -29 -130 -7 -41 -18 -88
-24 -103 -6 -16 -11 -54 -11 -85 0 -31 -6 -75 -12 -97 -8 -29 -13 -296 -17
-929 -5 -654 -9 -890 -17 -893 -7 -2 -273 256 -592 574 -318 318 -610 603
-647 633 -37 30 -82 68 -99 83 -17 15 -49 40 -71 55 -22 15 -41 30 -43 35 -2
4 -7 7 -12 7 -5 0 -42 23 -83 50 -41 28 -79 50 -85 50 -6 0 -12 3 -14 8 -1 4
-41 27 -88 50 -47 24 -92 47 -100 52 -8 4 -35 16 -60 25 -25 10 -61 24 -80 33
-19 8 -48 20 -65 28 -16 7 -41 15 -55 17 -14 3 -38 10 -55 15 -35 12 -113 33
-202 56 -35 9 -80 16 -100 16 -21 0 -63 7 -93 15 -68 18 -512 22 -557 4 -15
-6 -64 -15 -108 -20 -44 -5 -109 -16 -145 -25 -36 -9 -90 -22 -121 -29 -30 -7
-65 -17 -77 -24 -11 -6 -31 -11 -44 -11 -13 0 -32 -7 -42 -15 -11 -8 -27 -15
-35 -15 -9 0 -29 -7 -45 -15 -15 -8 -35 -15 -43 -15 -8 0 -27 -6 -41 -14 -62
-32 -239 -116 -245 -116 -12 0 -264 -155 -319 -196 -32 -24 -75 -54 -96 -68
-21 -13 -45 -30 -53 -38 -8 -7 -36 -31 -64 -53 -27 -21 -54 -44 -60 -49 -5 -6
-28 -26 -50 -45 -57 -48 -198 -185 -280 -273 -76 -80 -99 -107 -160 -183 -21
-28 -42 -52 -46 -55 -18 -15 -207 -295 -226 -335 -7 -16 -22 -43 -33 -60 -10
-16 -35 -64 -55 -105 -20 -41 -41 -82 -46 -90 -5 -8 -12 -22 -15 -30 -3 -8
-11 -28 -18 -45 -27 -60 -65 -167 -76 -214 -5 -18 -13 -38 -19 -44 -6 -6 -11
-24 -11 -39 0 -15 -6 -45 -14 -65 -16 -44 -35 -131 -42 -188 -3 -22 -12 -86
-20 -142 -31 -200 6 -701 62 -830 8 -17 14 -42 14 -55 0 -12 7 -32 15 -42 8
-11 15 -30 15 -43 0 -12 7 -39 16 -60 9 -21 24 -54 32 -73 9 -19 21 -48 28
-65 17 -42 81 -172 108 -220 12 -22 31 -56 42 -75 22 -39 56 -92 64 -100 3 -3
23 -32 45 -65 22 -33 46 -66 52 -73 7 -7 13 -17 13 -21 0 -4 17 -25 38 -46 20
-22 48 -53 60 -70 56 -72 151 -171 476 -495 762 -759 762 -759 737 -774 -4 -3
-374 -5 -822 -5 -788 0 -1087 -8 -1128 -30 -11 -6 -39 -11 -63 -11 -24 -1 -61
-7 -83 -15 -22 -8 -50 -15 -62 -15 -12 0 -42 -6 -65 -14 -24 -8 -77 -24 -118
-35 -41 -12 -82 -26 -90 -30 -9 -5 -30 -12 -48 -16 -18 -3 -32 -10 -32 -15 0
-4 -12 -11 -27 -14 -47 -11 -235 -104 -318 -157 -16 -10 -37 -22 -45 -26 -8
-3 -41 -26 -72 -50 -31 -24 -61 -43 -67 -43 -6 0 -11 -4 -11 -9 0 -5 -13 -17
-29 -28 -43 -27 -125 -98 -205 -178 -81 -80 -186 -193 -186 -199 0 -3 -36 -52
-79 -110 -44 -58 -82 -115 -86 -126 -3 -11 -11 -20 -16 -20 -5 0 -9 -7 -9 -14
0 -8 -12 -34 -27 -58 -52 -80 -61 -98 -125 -238 -16 -36 -36 -78 -44 -93 -8
-16 -14 -36 -14 -46 0 -9 -7 -26 -15 -37 -8 -10 -15 -30 -15 -44 0 -14 -6 -34
-14 -45 -7 -11 -17 -36 -21 -55 -4 -19 -11 -39 -15 -45 -4 -5 -11 -32 -15 -60
-4 -27 -10 -54 -15 -60 -4 -5 -11 -32 -15 -60 -4 -27 -10 -54 -13 -60 -15 -22
-55 -340 -74 -582 -9 -117 -9 -191 0 -315 18 -242 31 -368 42 -413 6 -22 15
-69 20 -105 10 -73 32 -170 41 -185 4 -5 10 -28 13 -50 9 -50 35 -132 52 -167
8 -14 14 -34 14 -45 0 -10 7 -27 15 -37 8 -11 15 -28 15 -37 0 -10 7 -30 15
-46 7 -15 23 -48 35 -73 12 -25 25 -52 30 -60 5 -8 18 -36 30 -62 12 -26 32
-62 44 -80 12 -18 25 -40 29 -48 4 -8 16 -28 27 -45 11 -16 23 -37 27 -45 28
-63 362 -450 387 -450 3 0 14 -8 24 -18 10 -9 35 -30 56 -47 21 -16 52 -42 69
-57 18 -15 40 -30 50 -34 9 -3 17 -10 17 -15 0 -5 5 -9 10 -9 6 0 38 -19 73
-43 34 -24 86 -54 115 -67 28 -14 52 -28 52 -32 0 -3 13 -9 30 -13 16 -4 30
-10 30 -13 0 -4 21 -15 48 -26 26 -10 61 -25 77 -32 70 -31 218 -84 235 -84
10 0 31 -7 46 -15 16 -8 39 -15 52 -15 13 0 32 -5 43 -10 10 -6 47 -15 82 -20
34 -5 91 -14 127 -20 245 -41 160 -40 2457 -40 1868 -1 2208 -3 2263 -15 36
-8 96 -14 133 -15 37 0 84 -7 104 -15 19 -8 50 -15 68 -15 30 0 98 -17 170
-42 17 -5 47 -13 68 -18 21 -4 44 -13 50 -19 6 -6 20 -11 30 -11 10 0 31 -6
45 -13 47 -24 96 -45 120 -52 12 -3 22 -11 22 -16 0 -5 7 -9 16 -9 18 0 137
-69 142 -82 2 -4 10 -8 18 -8 24 0 226 -161 319 -254 105 -106 162 -174 225
-266 8 -12 23 -33 33 -45 9 -13 17 -26 17 -29 0 -3 12 -22 26 -43 51 -75 154
-298 185 -400 5 -18 14 -35 19 -38 6 -4 10 -19 10 -35 0 -16 6 -44 14 -62 28
-68 60 -202 76 -318 4 -36 13 -85 19 -110 35 -155 32 -773 -5 -921 -8 -31 -14
-78 -14 -104 0 -25 -5 -56 -11 -67 -6 -11 -15 -44 -19 -72 -10 -72 -30 -146
-46 -179 -8 -16 -14 -41 -14 -55 0 -15 -7 -36 -15 -46 -8 -11 -15 -28 -15 -38
0 -17 -20 -68 -46 -120 -8 -14 -14 -33 -14 -41 0 -8 -7 -20 -15 -27 -8 -7 -15
-23 -15 -37 0 -13 -7 -26 -15 -29 -8 -4 -15 -14 -15 -24 0 -11 -4 -22 -10 -25
-5 -3 -22 -33 -37 -65 -15 -33 -31 -60 -35 -60 -4 0 -8 -7 -8 -15 0 -9 -7 -18
-15 -21 -8 -4 -15 -12 -15 -19 0 -10 -9 -24 -50 -72 -5 -7 -10 -15 -10 -19 0
-13 -101 -127 -198 -223 -94 -94 -294 -251 -319 -251 -7 0 -13 -4 -13 -9 0 -5
-12 -14 -27 -20 -16 -6 -41 -20 -58 -31 -16 -11 -37 -23 -45 -26 -8 -3 -31
-13 -50 -22 -133 -59 -212 -89 -270 -101 -19 -4 -45 -13 -57 -19 -12 -7 -33
-12 -46 -12 -14 0 -41 -7 -60 -15 -20 -8 -57 -15 -82 -15 -26 0 -56 -5 -68
-12 -43 -24 -247 -29 -1327 -36 -1059 -7 -1097 -8 -1125 -26 -78 -51 -120
-169 -80 -222 8 -10 15 -25 15 -31 0 -15 36 -53 49 -53 5 0 17 -8 27 -18 16
-16 83 -17 1065 -20 634 -1 1101 2 1185 8 191 13 311 29 362 46 23 8 57 14 75
14 17 0 49 6 72 14 22 8 67 22 100 31 94 28 147 46 185 63 19 8 49 21 65 28
60 24 111 48 145 66 19 11 49 26 65 34 17 8 44 23 60 34 17 11 44 26 60 34 17
7 53 31 82 52 28 22 61 46 73 54 12 8 28 20 34 25 6 6 34 28 61 50 69 55 323
313 330 336 4 10 10 19 14 19 7 0 105 135 136 188 6 9 22 35 36 57 14 22 29
47 32 55 4 8 16 29 26 45 11 17 29 50 41 75 12 25 26 52 31 60 5 8 12 22 15
30 3 8 12 28 20 43 7 16 14 34 14 42 0 7 7 18 15 25 8 7 15 22 15 34 0 11 6
33 14 48 8 15 17 40 21 57 4 17 11 33 16 36 5 4 9 16 9 28 0 12 6 34 14 48 7
14 16 47 20 72 4 26 11 49 17 52 5 4 9 19 9 35 0 16 7 51 16 77 9 26 21 75 25
108 20 144 30 214 42 280 16 95 16 704 0 800 -14 79 -30 187 -44 289 -5 39
-14 75 -19 80 -4 6 -13 34 -19 61 -19 89 -37 159 -49 188 -7 16 -12 34 -12 42
0 8 -4 16 -9 20 -5 3 -12 19 -16 36 -4 17 -13 42 -21 57 -8 15 -14 37 -14 48
0 12 -7 27 -15 34 -8 7 -15 17 -15 23 0 12 -92 197 -121 242 -10 17 -23 39
-29 50 -6 11 -19 34 -30 50 -11 17 -24 39 -29 50 -5 12 -17 27 -27 35 -9 8
-24 27 -33 41 -35 57 -283 339 -299 339 -4 0 -25 17 -47 36 -22 20 -53 48 -70
62 -39 35 -271 191 -310 209 -16 7 -39 18 -50 25 -51 29 -116 60 -175 82 -59
23 -108 44 -143 62 -16 8 -41 14 -55 14 -15 1 -38 7 -52 15 -14 8 -35 14 -47
15 -12 0 -34 5 -50 12 -34 14 -134 35 -225 48 -37 5 -77 14 -90 22 -18 10
-451 14 -2198 20 -2046 7 -2573 15 -2646 38 -28 9 -91 21 -200 39 -28 5 -61
14 -72 20 -11 6 -29 11 -39 11 -10 1 -36 9 -58 20 -22 11 -48 19 -58 20 -9 0
-25 4 -35 9 -9 6 -37 19 -62 29 -125 55 -221 105 -248 130 -7 6 -17 12 -22 12
-11 0 -101 59 -115 75 -5 6 -36 30 -67 53 -66 48 -209 189 -253 247 -16 22
-32 42 -35 45 -21 19 -80 99 -80 108 0 6 -3 12 -7 14 -9 3 -46 55 -56 78 -4 8
-16 29 -26 45 -38 58 -121 227 -121 245 0 10 -7 23 -15 30 -8 7 -15 21 -15 30
0 10 -6 31 -14 47 -18 36 -36 88 -46 133 -4 19 -13 49 -18 65 -31 94 -42 136
-42 164 0 17 -6 48 -14 68 -8 21 -17 72 -20 114 -3 42 -11 89 -17 105 -7 20
-11 143 -11 379 0 285 3 362 16 415 9 36 16 89 16 118 0 29 7 69 15 89 8 19
15 51 15 70 0 18 7 50 15 70 8 19 15 47 15 62 0 14 7 39 15 55 8 15 15 38 15
50 1 11 7 32 15 46 8 14 14 35 15 47 0 12 7 35 15 52 8 17 22 45 30 62 8 17
15 39 15 49 0 9 7 23 15 30 8 7 15 21 15 31 0 9 7 24 15 33 8 8 15 21 15 29 0
8 7 20 15 27 8 7 15 20 15 30 0 10 7 23 15 30 8 7 15 17 15 23 0 10 118 193
145 224 6 6 28 33 50 60 38 46 160 169 221 224 39 34 185 144 204 152 8 4 29
16 45 26 54 35 132 76 195 103 19 8 56 25 81 37 25 11 51 21 58 21 6 0 19 4
29 9 9 6 44 17 77 26 33 9 78 23 100 30 22 8 65 17 95 20 30 4 63 11 72 16 18
10 167 26 348 39 58 4 564 7 1126 7 980 0 1022 1 1050 19 42 27 55 41 75 82
25 47 24 108 -1 157 -13 25 -305 325 -763 785 -408 410 -755 761 -771 780 -16
19 -65 82 -108 140 -43 58 -83 110 -88 117 -6 7 -10 14 -10 17 0 3 -13 24 -29
48 -39 57 -161 295 -161 312 0 8 -6 27 -14 43 -30 61 -46 105 -46 128 0 13 -4
26 -9 29 -5 4 -12 30 -16 59 -4 28 -12 61 -18 72 -6 11 -14 56 -18 100 -28
291 -30 338 -19 403 7 37 15 105 19 152 4 47 12 94 18 105 6 11 13 43 16 72 3
28 10 60 15 70 13 25 42 118 42 133 0 11 13 44 45 115 8 17 23 53 35 80 11 28
26 59 32 69 6 11 28 54 50 95 67 131 254 409 318 473 8 8 40 43 70 78 70 80
209 219 290 290 35 30 70 62 79 71 18 18 285 217 316 236 11 7 50 30 88 53 97
59 261 142 337 170 36 13 76 30 90 37 14 7 32 13 41 13 9 0 30 7 45 15 16 8
39 15 50 15 12 0 35 7 50 15 16 8 41 15 56 15 15 0 39 5 55 11 31 12 130 26
273 38 131 12 473 -14 520 -39 10 -5 29 -10 42 -10 13 0 36 -7 52 -15 15 -8
40 -15 55 -15 15 0 36 -7 47 -15 10 -8 26 -15 34 -15 8 0 26 -6 40 -13 14 -7
48 -21 75 -31 80 -30 249 -122 351 -192 195 -133 289 -220 1046 -976 397 -396
739 -731 760 -744 88 -56 210 -13 262 90 l25 51 3 1160 c2 889 6 1165 15 1181
7 12 17 52 22 90 13 87 34 181 49 217 7 16 12 33 12 39 0 14 29 104 48 148 9
19 21 49 28 65 18 44 79 166 103 206 12 19 24 41 28 49 11 24 46 73 86 122 20
25 37 49 37 54 0 14 187 203 260 265 36 30 67 56 70 59 9 10 185 125 215 141
107 58 231 119 241 119 7 0 25 6 41 14 53 27 98 44 158 61 33 10 71 22 85 28
14 5 43 13 65 18 22 4 60 12 85 18 25 6 65 16 90 22 25 6 79 15 120 20 41 4
98 13 125 20 33 7 174 11 405 12 296 0 366 -3 423 -17 38 -9 87 -16 110 -16
23 -1 60 -7 82 -15 22 -8 53 -15 68 -15 15 0 44 -7 64 -15 19 -8 46 -15 59
-15 13 0 38 -6 56 -14 18 -7 58 -21 88 -30 152 -47 371 -150 503 -238 49 -32
93 -58 98 -58 5 0 9 -4 9 -8 0 -4 12 -15 28 -24 15 -10 44 -33 65 -53 21 -19
41 -35 44 -35 5 0 137 -134 193 -197 97 -107 222 -309 290 -468 12 -27 28 -64
36 -82 8 -17 14 -38 14 -46 0 -9 4 -18 9 -21 5 -4 12 -25 16 -49 4 -23 11 -46
15 -52 10 -13 29 -93 41 -175 6 -36 15 -74 21 -85 23 -42 31 -311 37 -1350 6
-1069 6 -1080 27 -1112 32 -50 68 -73 141 -88 93 -20 153 -19 204 4 32 15 230
206 773 748 700 697 775 770 862 838 21 17 45 37 53 46 17 17 93 69 194 133
77 49 306 166 324 166 7 0 21 4 31 10 38 21 112 50 128 50 9 0 39 7 68 16 102
32 118 36 194 45 143 18 327 26 412 19 133 -13 252 -30 271 -41 10 -5 33 -9
51 -9 18 0 46 -7 62 -15 15 -8 38 -15 50 -15 11 0 33 -6 48 -14 15 -8 41 -17
59 -21 19 -4 40 -11 49 -16 8 -5 38 -18 65 -29 28 -12 66 -28 85 -36 19 -8 44
-20 55 -26 11 -6 63 -34 115 -61 52 -27 97 -52 100 -56 3 -4 34 -25 70 -46 56
-34 244 -169 276 -200 6 -5 38 -32 70 -60 76 -64 285 -271 358 -354 82 -93
245 -311 263 -351 4 -8 9 -17 13 -20 8 -7 69 -108 81 -134 5 -12 13 -29 19
-38 30 -52 64 -122 86 -176 8 -17 20 -47 28 -65 32 -75 42 -105 91 -277 51
-174 71 -448 52 -690 -7 -89 -18 -144 -53 -266 -8 -28 -14 -58 -14 -67 0 -16
-20 -68 -46 -119 -8 -14 -14 -32 -14 -39 0 -18 -131 -283 -142 -287 -4 -2 -8
-8 -8 -13 0 -11 -102 -163 -112 -167 -5 -2 -8 -9 -8 -16 0 -6 -8 -19 -17 -28
-10 -9 -23 -23 -28 -30 -102 -133 -115 -146 -891 -922 -385 -386 -710 -717
-722 -737 -51 -85 -16 -206 75 -256 31 -17 134 -16 168 1 16 8 372 358 792
778 683 682 927 937 976 1025 7 12 35 54 62 94 52 77 69 104 81 129 4 8 27 48
51 88 24 41 43 78 43 84 0 5 6 22 14 36 7 15 23 50 35 77 12 28 26 57 30 65 4
8 18 49 30 90 12 41 26 84 31 95 12 28 30 100 42 165 5 30 16 80 24 111 8 30
14 81 14 113 0 31 5 90 11 129 12 75 -2 382 -23 492 -5 28 -13 77 -19 109 -5
33 -13 64 -18 70 -4 6 -11 31 -15 56 -7 44 -29 119 -46 151 -5 9 -12 33 -15
53 -4 20 -11 39 -16 42 -5 3 -9 12 -9 21 0 16 -19 59 -71 166 -16 31 -29 64
-29 71 0 8 -3 16 -7 18 -5 2 -21 28 -36 58 -16 30 -37 69 -48 85 -10 17 -23
39 -29 50 -15 31 -31 55 -77 117 -24 31 -43 61 -43 66 0 6 -4 12 -8 14 -5 2
-23 24 -40 50 -18 26 -49 67 -70 91 -20 24 -57 68 -82 98 -56 68 -319 331
-385 384 -27 22 -67 56 -90 75 -83 72 -335 250 -352 250 -7 0 -13 4 -13 8 0 4
-12 13 -27 20 -16 6 -41 20 -58 31 -52 35 -322 165 -375 182 -14 4 -50 17 -80
29 -30 12 -68 25 -85 30 -16 5 -43 13 -60 18 -70 24 -173 46 -380 84 -95 17
-556 17 -650 -1 -172 -31 -232 -44 -254 -53 -14 -5 -43 -13 -65 -18 -43 -8
-90 -24 -141 -45 -16 -7 -50 -20 -75 -30 -94 -35 -178 -75 -245 -113 -11 -7
-29 -16 -41 -21 -25 -11 -127 -73 -134 -81 -3 -3 -23 -17 -45 -30 -22 -13 -42
-26 -45 -29 -3 -4 -30 -23 -60 -43 -31 -21 -69 -50 -85 -66 -17 -15 -50 -43
-75 -62 -25 -18 -332 -320 -683 -669 -350 -350 -646 -637 -656 -639 -19 -3
-19 20 -24 975 -4 864 -6 986 -21 1048 -9 38 -16 84 -16 101 0 17 -7 51 -15
74 -8 23 -15 55 -15 71 0 16 -6 46 -14 66 -7 21 -21 67 -31 103 -19 73 -40
131 -61 173 -8 16 -14 35 -14 44 0 8 -6 27 -14 41 -8 15 -38 77 -67 137 -28
61 -55 112 -58 115 -4 3 -12 16 -19 30 -14 29 -35 63 -43 70 -3 3 -16 23 -29
45 -13 22 -26 42 -29 45 -4 3 -17 21 -30 40 -77 109 -314 353 -416 428 -6 4
-30 23 -55 43 -50 40 -142 100 -195 129 -11 6 -33 19 -50 29 -16 11 -50 29
-75 41 -25 12 -52 25 -60 30 -8 5 -35 18 -60 30 -25 12 -58 28 -73 35 -16 8
-36 15 -46 15 -9 0 -26 7 -37 15 -10 8 -28 15 -40 15 -11 0 -29 7 -40 15 -10
8 -28 15 -39 15 -11 0 -33 7 -49 15 -15 8 -38 15 -50 15 -11 0 -41 6 -66 14
-128 40 -190 53 -370 76 -41 6 -104 15 -139 21 -81 13 -508 19 -626 9z"/>
<path d="M13372 13551 c-52 -21 -80 -47 -91 -85 -15 -59 10 -103 83 -140 37
-20 38 -20 74 -1 53 27 72 45 87 82 12 28 12 38 0 66 -16 38 -29 51 -78 76
-32 16 -38 16 -75 2z"/>
<path d="M7140 13464 c-14 -9 -33 -35 -43 -58 -15 -37 -17 -86 -17 -455 0
-494 6 -552 78 -701 9 -19 22 -40 27 -46 6 -6 17 -22 25 -34 35 -52 172 -170
198 -170 5 0 15 -7 22 -15 7 -8 22 -15 34 -15 12 0 33 -8 46 -17 22 -16 50
-18 211 -18 200 0 194 -1 232 57 21 34 22 61 1 108 -27 60 -54 70 -193 70
-121 0 -134 3 -229 48 -35 17 -118 93 -139 127 -54 88 -56 99 -61 331 -3 155
-1 228 7 243 12 21 16 21 277 21 l266 0 34 34 c30 30 34 40 34 86 0 67 -28
115 -71 124 -17 3 -141 6 -275 6 -281 0 -274 -2 -274 87 0 76 -25 158 -57 183
-31 24 -97 26 -133 4z"/>
<path d="M11020 13191 c-8 -5 -37 -13 -65 -17 -27 -3 -59 -13 -70 -20 -11 -8
-26 -14 -33 -14 -8 0 -34 -13 -59 -30 -24 -16 -47 -30 -51 -30 -4 0 -39 -33
-77 -72 -65 -68 -145 -184 -145 -211 0 -7 -8 -25 -17 -42 -14 -25 -17 -60 -17
-203 0 -115 3 -175 10 -180 6 -4 14 -18 18 -32 8 -26 38 -92 46 -100 9 -9 50
-69 50 -73 0 -5 100 -107 105 -107 2 0 24 -13 48 -30 25 -16 49 -30 55 -30 5
0 15 -7 22 -15 7 -8 22 -15 34 -15 12 0 33 -8 46 -17 21 -15 50 -17 185 -17
135 0 164 2 185 17 13 9 32 17 42 17 9 0 43 15 75 34 65 38 74 37 112 -20 16
-22 38 -41 56 -46 39 -10 95 -1 120 20 44 36 47 76 47 602 0 517 -3 558 -43
597 -38 38 -49 43 -93 43 -54 0 -102 -25 -117 -62 -13 -32 -52 -38 -97 -14
-53 27 -88 40 -147 54 -76 18 -206 25 -225 13z m184 -268 c28 -9 66 -23 85
-32 38 -18 141 -111 141 -127 0 -5 5 -15 11 -21 42 -42 64 -230 34 -283 -8
-14 -14 -35 -15 -48 0 -12 -7 -25 -15 -28 -8 -4 -15 -12 -15 -19 0 -24 -84
-103 -145 -136 -58 -32 -64 -33 -175 -33 -124 0 -139 4 -225 69 -59 45 -89 79
-120 139 -17 33 -20 59 -20 156 0 97 3 123 20 156 28 53 34 61 86 113 96 95
236 132 353 94z"/>
<path d="M13350 13190 c0 -5 -6 -10 -13 -10 -18 0 -48 -38 -58 -74 -5 -17 -9
-259 -9 -539 0 -552 0 -548 56 -601 38 -35 116 -37 155 -3 60 50 59 38 59 600
0 569 1 563 -63 611 -25 19 -46 26 -80 26 -26 0 -47 -4 -47 -10z"/>
<path d="M8651 13178 c-46 -4 -98 -14 -116 -22 -18 -9 -40 -16 -48 -16 -8 0
-20 -7 -27 -15 -7 -8 -16 -15 -21 -15 -13 0 -98 -61 -138 -100 -78 -75 -140
-183 -172 -295 -18 -63 -17 -254 0 -315 49 -169 166 -316 317 -396 109 -58
158 -68 326 -69 l156 0 39 31 c34 28 38 37 41 82 3 44 -1 54 -29 86 l-31 36
-119 0 c-84 0 -130 5 -156 15 -19 8 -44 15 -54 15 -28 0 -93 37 -130 74 -84
82 -110 136 -73 150 9 3 227 6 486 6 l470 0 -5 108 c-8 150 -20 210 -58 289
-52 107 -115 181 -209 246 -51 36 -109 67 -125 67 -5 0 -23 7 -40 16 -39 20
-177 31 -284 22z m189 -253 c14 -8 34 -14 46 -15 54 -1 200 -184 173 -216 -9
-11 -75 -14 -334 -14 -344 0 -345 0 -328 48 17 45 116 152 141 152 5 0 15 7
22 15 7 8 22 15 34 15 12 0 31 7 42 15 26 20 169 20 204 0z"/>
<path d="M10000 13173 c-24 -3 -49 -8 -55 -13 -5 -4 -26 -11 -45 -14 -19 -4
-51 -15 -70 -24 -37 -18 -142 -94 -174 -126 -29 -29 -116 -158 -116 -172 0 -7
-6 -25 -14 -41 -35 -70 -40 -118 -43 -439 -3 -280 -2 -323 12 -334 8 -7 15
-18 15 -24 0 -6 19 -17 43 -24 36 -11 48 -10 79 3 64 26 65 34 69 385 4 280 6
319 22 343 9 14 17 31 17 36 0 20 63 102 103 136 83 69 108 77 262 82 191 8
231 32 222 136 -4 49 -18 68 -65 87 -22 10 -168 11 -262 3z"/>
<path d="M12370 13174 c-14 -3 -39 -12 -57 -20 -17 -8 -38 -14 -47 -14 -9 0
-16 -4 -16 -9 0 -5 -10 -13 -22 -17 -33 -10 -126 -84 -173 -136 -59 -66 -68
-78 -93 -133 -13 -28 -28 -58 -33 -68 -29 -53 -33 -127 -36 -685 -3 -564 -3
-574 17 -602 38 -53 145 -64 186 -19 37 42 44 86 44 317 0 182 3 224 14 228
12 5 44 -10 111 -54 11 -6 25 -14 30 -15 97 -33 122 -37 225 -37 113 0 202 17
245 46 11 8 26 14 33 14 16 0 120 78 170 129 44 43 122 160 122 181 0 9 5 21
11 27 21 21 42 139 42 238 0 99 -13 182 -39 240 -7 17 -15 37 -19 45 -24 60
-113 171 -177 219 -73 56 -69 54 -108 72 -114 53 -111 52 -260 55 -80 1 -156
0 -170 -2z m262 -248 c18 -8 40 -17 48 -21 70 -28 156 -115 189 -190 127 -288
-110 -604 -414 -550 -132 23 -219 91 -287 225 -20 39 -23 60 -23 160 0 94 3
121 18 143 9 14 17 32 17 40 0 18 107 136 134 148 12 5 28 13 36 18 72 42 215
56 282 27z"/>
<path d="M14120 13174 c-14 -3 -39 -12 -57 -20 -17 -8 -36 -14 -41 -14 -25 0
-142 -80 -195 -134 -80 -81 -121 -146 -163 -261 -15 -40 -19 -78 -18 -185 0
-170 16 -227 103 -355 37 -54 121 -145 135 -145 4 0 25 -12 45 -27 41 -32 83
-52 161 -79 79 -27 358 -28 387 -1 11 9 24 17 29 17 17 0 36 70 30 106 -4 19
-18 46 -32 61 -25 27 -29 28 -165 33 -90 4 -143 10 -151 18 -6 6 -22 12 -35
12 -36 0 -104 41 -155 93 -49 49 -86 112 -73 125 3 4 223 8 487 10 l480 3 -4
137 c-4 141 -19 209 -60 277 -10 17 -22 40 -28 53 -10 24 -69 91 -109 126 -14
12 -32 28 -41 37 -9 8 -23 19 -31 22 -8 4 -34 18 -58 32 -24 14 -49 25 -55 25
-6 0 -24 8 -41 17 -23 13 -62 17 -175 19 -80 1 -156 0 -170 -2z m257 -250 c85
-37 106 -51 134 -84 45 -53 46 -55 68 -96 35 -65 39 -64 -326 -64 -361 0 -353
-2 -317 66 38 71 147 164 192 164 10 0 27 7 38 15 27 21 162 20 211 -1z"/>
<path d="M9610 10924 c-67 -13 -142 -72 -173 -139 -17 -35 -19 -80 -22 -507
-2 -258 -7 -473 -10 -477 -6 -11 -45 -2 -62 13 -29 26 -40 32 -158 95 -58 31
-155 71 -172 71 -6 0 -24 7 -39 15 -16 8 -46 15 -66 15 -20 0 -63 7 -95 15
-31 8 -89 15 -128 15 -74 0 -260 -25 -310 -42 -16 -5 -47 -14 -68 -19 -38 -9
-45 -12 -105 -42 -19 -9 -38 -17 -44 -17 -10 0 -128 -68 -138 -79 -8 -10 -69
-51 -74 -51 -3 0 -18 -12 -34 -27 -16 -16 -49 -46 -73 -69 -89 -82 -206 -234
-245 -319 -8 -16 -18 -37 -23 -45 -17 -28 -41 -88 -41 -102 0 -8 -4 -18 -9
-23 -14 -15 -41 -122 -51 -200 -26 -206 -27 -244 -14 -332 7 -48 14 -108 14
-133 0 -25 7 -56 15 -70 8 -14 14 -36 15 -48 0 -13 6 -38 14 -55 7 -18 21 -52
31 -77 9 -25 21 -52 26 -60 4 -8 18 -35 30 -58 58 -116 260 -343 369 -417 25
-16 47 -32 50 -35 10 -11 46 -31 73 -41 15 -6 27 -15 27 -20 0 -5 5 -9 11 -9
5 0 31 -9 57 -21 71 -31 83 -35 142 -52 75 -22 170 -39 260 -46 131 -10 352
13 427 45 17 8 38 14 47 14 8 0 32 8 53 17 99 43 123 55 129 64 3 5 14 9 25 9
10 0 19 4 19 10 0 5 11 12 24 16 14 3 27 12 30 20 3 8 12 14 20 14 8 0 16 3
18 8 2 4 26 25 53 47 85 67 245 240 245 265 0 6 7 13 15 16 8 4 15 12 15 19 0
8 6 20 13 27 17 17 107 202 107 219 0 8 6 25 13 39 8 15 17 48 20 74 4 27 13
56 20 64 18 22 18 2261 0 2282 -7 8 -24 29 -38 47 -14 17 -42 40 -64 51 -39
21 -126 34 -171 26z m-785 -1410 c68 -16 89 -23 170 -61 94 -43 275 -201 275
-240 0 -6 3 -13 8 -15 12 -5 52 -66 52 -80 0 -7 7 -22 15 -32 8 -11 15 -30 15
-42 0 -12 6 -27 14 -33 38 -32 37 -425 -1 -472 -6 -8 -14 -29 -18 -46 -3 -18
-11 -33 -16 -33 -5 0 -9 -9 -9 -19 0 -11 -7 -26 -15 -35 -8 -8 -15 -17 -15
-21 0 -7 -37 -59 -70 -98 -51 -61 -178 -167 -198 -167 -5 0 -15 -6 -21 -14 -6
-8 -22 -16 -34 -19 -12 -3 -53 -17 -92 -31 -63 -23 -85 -26 -210 -26 -141 0
-179 7 -275 48 -143 62 -248 148 -333 276 -32 46 -57 87 -57 91 0 4 -6 21 -14
38 -48 111 -51 128 -51 297 0 169 3 186 51 297 8 17 14 34 14 37 0 4 23 40 52
81 43 63 116 140 192 203 18 15 128 72 172 88 110 43 280 55 399 28z"/>
<path d="M5765 10059 c-16 -6 -50 -14 -75 -18 -65 -13 -130 -37 -230 -85 -61
-29 -144 -79 -148 -88 -2 -4 -8 -8 -14 -8 -14 0 -91 -64 -163 -135 -109 -107
-219 -263 -266 -377 -12 -29 -28 -67 -35 -85 -8 -17 -14 -36 -14 -43 0 -7 -7
-33 -15 -59 -8 -25 -22 -99 -31 -164 -17 -121 -16 -215 6 -340 16 -91 46 -209
59 -235 25 -49 51 -110 51 -120 0 -6 3 -12 8 -14 4 -1 16 -21 27 -42 11 -22
25 -44 30 -50 6 -6 24 -31 40 -56 56 -84 292 -310 323 -310 6 0 15 -6 19 -12
4 -7 24 -21 43 -32 19 -10 59 -31 89 -47 30 -16 61 -29 70 -29 10 0 26 -7 37
-15 10 -8 30 -15 42 -15 13 0 38 -6 55 -14 44 -20 203 -39 322 -39 104 1 250
20 298 41 16 7 39 12 52 12 13 0 26 4 30 9 3 5 18 12 34 16 33 7 198 90 222
111 26 23 36 17 66 -42 15 -31 32 -64 37 -73 16 -30 91 -77 153 -95 60 -18 64
-18 120 -1 87 27 144 71 188 146 19 33 20 55 23 584 2 309 -2 594 -7 650 -10
100 -30 211 -42 230 -4 6 -10 26 -14 45 -4 19 -14 44 -21 55 -8 11 -14 27 -14
36 0 9 -7 22 -15 29 -8 7 -15 21 -15 31 0 11 -4 19 -9 19 -5 0 -13 10 -17 23
-4 12 -20 38 -35 58 -16 20 -29 41 -29 45 0 9 -35 49 -119 139 -152 161 -327
271 -521 328 -150 44 -173 47 -371 46 -107 0 -207 -5 -224 -10z m380 -491 c71
-14 78 -17 152 -49 23 -11 44 -19 46 -19 3 0 29 -16 58 -36 110 -72 209 -186
263 -299 10 -22 25 -52 33 -67 7 -14 13 -39 13 -55 0 -15 7 -46 15 -68 19 -53
19 -191 0 -245 -8 -23 -15 -55 -15 -70 0 -16 -6 -41 -14 -57 -7 -15 -22 -46
-32 -68 -10 -22 -25 -50 -34 -61 -8 -12 -22 -32 -30 -44 -24 -37 -146 -160
-158 -160 -6 0 -12 -3 -14 -7 -7 -18 -90 -65 -173 -99 -140 -57 -390 -57 -508
2 -16 8 -37 14 -47 14 -9 0 -23 7 -30 15 -7 8 -16 15 -21 15 -4 0 -34 18 -66
39 -96 65 -218 205 -253 291 -6 14 -15 34 -20 45 -13 27 -30 97 -41 175 -16
105 4 273 41 355 5 11 14 31 20 45 12 29 23 47 65 110 29 43 153 170 167 170
4 0 13 6 20 13 48 43 185 103 263 113 28 4 57 10 65 15 20 12 146 5 235 -13z"/>
<path d="M11130 10059 c-19 -6 -53 -14 -75 -18 -81 -15 -165 -49 -286 -114
-56 -30 -142 -89 -205 -143 -85 -73 -88 -75 -154 -159 -30 -39 -57 -72 -60
-75 -28 -27 -140 -244 -140 -272 0 -8 -7 -23 -15 -34 -8 -10 -15 -31 -15 -46
0 -15 -5 -39 -11 -55 -7 -15 -18 -88 -25 -160 -10 -109 -10 -157 0 -265 7 -73
18 -146 25 -161 6 -16 11 -39 11 -52 0 -13 6 -36 14 -52 8 -15 22 -48 31 -73
9 -25 21 -52 25 -60 5 -8 21 -37 36 -65 53 -101 197 -270 305 -360 89 -73 264
-174 332 -190 15 -4 30 -11 33 -16 3 -5 17 -9 31 -9 14 0 39 -6 56 -14 46 -21
206 -40 322 -39 105 1 250 21 298 41 16 7 38 12 50 12 12 0 31 7 41 15 11 8
30 15 43 15 13 0 23 3 23 8 0 8 91 52 109 52 6 0 11 4 11 9 0 5 10 13 22 17
13 4 28 14 35 23 19 26 47 3 73 -59 31 -72 90 -124 176 -153 64 -21 66 -21
139 0 46 14 71 29 110 69 27 28 55 57 60 65 30 41 35 126 34 632 0 603 -10
733 -67 882 -35 95 -71 171 -103 220 -10 17 -24 40 -30 53 -7 12 -16 22 -21
22 -4 0 -8 7 -8 15 0 7 -6 18 -12 22 -7 4 -38 38 -68 74 -30 36 -79 85 -108
110 -29 24 -61 51 -70 59 -38 34 -164 110 -232 141 -62 29 -98 41 -240 80 -56
15 -451 22 -500 8z m385 -491 c71 -14 78 -17 152 -49 23 -11 46 -19 51 -19 6
0 12 -7 16 -15 3 -8 10 -15 16 -15 30 0 230 -185 230 -213 0 -4 14 -26 30 -49
17 -22 30 -47 30 -53 0 -7 7 -26 15 -41 8 -16 15 -36 15 -45 0 -9 7 -33 15
-52 21 -52 21 -274 -1 -342 -35 -109 -83 -206 -129 -262 -5 -6 -23 -29 -40
-49 -30 -38 -178 -154 -197 -154 -5 0 -16 -7 -24 -15 -9 -8 -26 -15 -38 -15
-13 0 -29 -7 -36 -15 -7 -8 -25 -15 -40 -15 -15 0 -47 -7 -70 -15 -27 -10 -79
-15 -145 -15 -66 0 -118 5 -145 15 -23 8 -55 15 -70 15 -15 0 -33 7 -40 15 -7
8 -22 15 -35 15 -12 0 -41 14 -63 30 -23 17 -45 30 -48 30 -9 0 -81 58 -125
100 -42 40 -107 134 -139 200 -12 25 -26 54 -32 64 -42 78 -41 417 0 492 6 10
19 37 28 59 44 102 147 228 229 281 17 10 32 21 35 24 15 15 94 56 161 83 20
8 60 18 90 22 30 4 61 11 69 16 20 12 146 5 235 -13z"/>
<path d="M13905 10018 c-38 -5 -88 -13 -110 -19 -22 -5 -60 -14 -84 -20 -24
-5 -49 -13 -55 -18 -6 -5 -22 -12 -36 -16 -53 -16 -159 -70 -240 -124 -75 -49
-252 -212 -305 -281 -89 -116 -164 -259 -197 -380 -49 -173 -48 -162 -48 -774
0 -569 0 -580 21 -623 26 -54 82 -100 151 -124 67 -23 88 -23 152 -1 55 18 59
21 110 67 74 68 70 38 77 650 6 531 14 675 39 683 6 2 10 11 10 20 0 37 86
173 152 242 43 45 121 110 131 110 3 0 25 13 49 28 24 15 59 34 78 41 33 12
50 17 140 43 83 23 365 -3 435 -40 11 -5 48 -24 83 -41 35 -18 69 -36 75 -41
75 -60 118 -101 151 -144 22 -28 44 -53 48 -56 4 -3 12 -17 18 -30 6 -14 22
-45 35 -70 13 -25 24 -54 24 -65 1 -12 7 -27 14 -33 9 -10 13 -152 17 -615 4
-498 8 -608 20 -637 24 -59 98 -123 166 -143 72 -21 72 -21 137 0 88 28 133
64 167 133 12 25 26 53 31 62 5 10 9 254 9 571 0 531 1 555 21 612 71 209 191
346 393 454 32 17 67 31 78 31 10 0 33 8 51 17 48 27 350 26 422 -1 57 -21
113 -45 135 -58 8 -4 22 -11 30 -15 8 -4 17 -9 20 -12 3 -3 23 -18 45 -33 54
-37 91 -72 145 -138 51 -63 61 -77 91 -140 12 -25 28 -57 35 -72 8 -14 14 -39
14 -55 0 -15 7 -46 15 -68 12 -33 14 -137 15 -591 0 -461 2 -553 14 -563 8 -7
17 -22 20 -34 9 -32 82 -81 153 -102 60 -17 65 -17 120 0 78 24 136 69 167
130 l26 50 0 580 c0 480 -3 587 -15 620 -8 22 -14 54 -15 71 0 18 -7 45 -15
60 -8 16 -15 37 -15 46 0 25 -55 147 -91 203 -10 17 -22 37 -26 45 -4 8 -12
21 -19 27 -7 7 -22 28 -34 48 -12 19 -26 35 -31 35 -5 0 -9 5 -9 11 0 20 -207
212 -251 233 -10 5 -19 13 -19 18 0 4 -4 8 -10 8 -5 0 -26 12 -47 26 -46 31
-198 104 -218 104 -7 0 -16 4 -19 9 -4 5 -25 12 -49 16 -23 4 -51 12 -62 18
-76 40 -561 40 -665 -1 -14 -5 -52 -17 -85 -27 -55 -17 -193 -78 -240 -108
-116 -72 -138 -90 -242 -195 -65 -66 -87 -82 -103 -77 -11 3 -20 10 -20 14 0
11 -137 150 -185 187 -67 52 -144 104 -154 104 -5 0 -11 3 -13 8 -5 12 -158
82 -180 82 -8 0 -18 4 -24 10 -5 5 -30 14 -54 19 -25 6 -65 14 -90 20 -137 30
-328 38 -475 19z"/>
</g>
</svg>
